G04 #@! TF.GenerationSoftware,KiCad,Pcbnew,5.1.5-52549c5~84~ubuntu16.04.1*
G04 #@! TF.CreationDate,2019-12-06T18:45:02-05:00*
G04 #@! TF.ProjectId,RGBSL,52474253-4c2e-46b6-9963-61645f706362,rev?*
G04 #@! TF.SameCoordinates,Original*
G04 #@! TF.FileFunction,Legend,Top*
G04 #@! TF.FilePolarity,Positive*
%FSLAX46Y46*%
G04 Gerber Fmt 4.6, Leading zero omitted, Abs format (unit mm)*
G04 Created by KiCad (PCBNEW 5.1.5-52549c5~84~ubuntu16.04.1) date 2019-12-06 18:45:02*
%MOMM*%
%LPD*%
G04 APERTURE LIST*
%ADD10C,0.120000*%
%ADD11C,0.150000*%
G04 APERTURE END LIST*
D10*
X142400000Y-44240000D02*
X149700000Y-44240000D01*
X142400000Y-49740000D02*
X149700000Y-49740000D01*
X149700000Y-49740000D02*
X149700000Y-48590000D01*
X147939430Y-59189993D02*
X148935359Y-59764993D01*
X151589430Y-52868007D02*
X147939430Y-59189993D01*
X156352570Y-55618007D02*
X152702570Y-61939993D01*
X138889430Y-61939993D02*
X135239430Y-55618007D01*
X143652570Y-59189993D02*
X140002570Y-52868007D01*
X140002570Y-52868007D02*
X139006641Y-53443007D01*
D11*
X151074380Y-49252095D02*
X150074380Y-49252095D01*
X150074380Y-49014000D01*
X150122000Y-48871142D01*
X150217238Y-48775904D01*
X150312476Y-48728285D01*
X150502952Y-48680666D01*
X150645809Y-48680666D01*
X150836285Y-48728285D01*
X150931523Y-48775904D01*
X151026761Y-48871142D01*
X151074380Y-49014000D01*
X151074380Y-49252095D01*
X151074380Y-47728285D02*
X151074380Y-48299714D01*
X151074380Y-48014000D02*
X150074380Y-48014000D01*
X150217238Y-48109238D01*
X150312476Y-48204476D01*
X150360095Y-48299714D01*
X142017714Y-47696380D02*
X141446285Y-47696380D01*
X141732000Y-47696380D02*
X141732000Y-46696380D01*
X141636761Y-46839238D01*
X141541523Y-46934476D01*
X141446285Y-46982095D01*
X148740600Y-60982724D02*
X149240600Y-60116699D01*
X149446796Y-60235746D01*
X149546705Y-60348414D01*
X149581564Y-60478512D01*
X149575185Y-60584800D01*
X149521186Y-60773567D01*
X149449757Y-60897285D01*
X149313280Y-61038433D01*
X149224421Y-61097102D01*
X149094324Y-61131961D01*
X148946796Y-61101772D01*
X148740600Y-60982724D01*
X150017767Y-60675368D02*
X150082816Y-60657938D01*
X150189104Y-60664318D01*
X150395300Y-60783366D01*
X150453969Y-60872224D01*
X150471399Y-60937273D01*
X150465019Y-61043561D01*
X150417400Y-61126039D01*
X150304733Y-61225948D01*
X149524147Y-61435105D01*
X150060258Y-61744629D01*
X152680630Y-57636754D02*
X152394916Y-58131626D01*
X152537773Y-57884190D02*
X151671747Y-57384190D01*
X151747846Y-57538097D01*
X151782706Y-57668195D01*
X151776326Y-57774483D01*
X142334981Y-61466821D02*
X141834981Y-60600795D01*
X142041177Y-60481747D01*
X142188705Y-60451558D01*
X142318802Y-60486418D01*
X142407661Y-60545087D01*
X142544138Y-60686235D01*
X142615567Y-60809952D01*
X142669565Y-60998719D01*
X142675945Y-61105007D01*
X142641086Y-61235105D01*
X142541177Y-61347773D01*
X142334981Y-61466821D01*
X142618528Y-60148414D02*
X143154639Y-59838890D01*
X143056440Y-60335471D01*
X143180157Y-60264043D01*
X143286446Y-60257663D01*
X143351494Y-60275093D01*
X143440353Y-60333762D01*
X143559400Y-60539959D01*
X143565780Y-60646247D01*
X143548350Y-60711295D01*
X143489681Y-60800154D01*
X143242245Y-60943011D01*
X143135957Y-60949391D01*
X143070908Y-60931961D01*
X139451082Y-58639626D02*
X139165368Y-58144754D01*
X139308225Y-58392190D02*
X140174251Y-57892190D01*
X140002914Y-57881140D01*
X139872816Y-57846280D01*
X139783958Y-57787611D01*
M02*
