G04 #@! TF.GenerationSoftware,KiCad,Pcbnew,(5.1.2)-2*
G04 #@! TF.CreationDate,2019-12-06T21:05:31-06:00*
G04 #@! TF.ProjectId,RGBSL,52474253-4c2e-46b6-9963-61645f706362,rev?*
G04 #@! TF.SameCoordinates,Original*
G04 #@! TF.FileFunction,Soldermask,Bot*
G04 #@! TF.FilePolarity,Negative*
%FSLAX46Y46*%
G04 Gerber Fmt 4.6, Leading zero omitted, Abs format (unit mm)*
G04 Created by KiCad (PCBNEW (5.1.2)-2) date 2019-12-06 21:05:31*
%MOMM*%
%LPD*%
G04 APERTURE LIST*
%ADD10C,0.100000*%
G04 APERTURE END LIST*
D10*
G36*
X149237000Y-54749000D02*
G01*
X147435000Y-54749000D01*
X147435000Y-52947000D01*
X149237000Y-52947000D01*
X149237000Y-54749000D01*
X149237000Y-54749000D01*
G37*
G36*
X145906443Y-52953519D02*
G01*
X145972627Y-52960037D01*
X146142466Y-53011557D01*
X146298991Y-53095222D01*
X146334729Y-53124552D01*
X146436186Y-53207814D01*
X146519448Y-53309271D01*
X146548778Y-53345009D01*
X146632443Y-53501534D01*
X146683963Y-53671373D01*
X146701359Y-53848000D01*
X146683963Y-54024627D01*
X146632443Y-54194466D01*
X146548778Y-54350991D01*
X146519448Y-54386729D01*
X146436186Y-54488186D01*
X146334729Y-54571448D01*
X146298991Y-54600778D01*
X146142466Y-54684443D01*
X145972627Y-54735963D01*
X145906442Y-54742482D01*
X145840260Y-54749000D01*
X145751740Y-54749000D01*
X145685558Y-54742482D01*
X145619373Y-54735963D01*
X145449534Y-54684443D01*
X145293009Y-54600778D01*
X145257271Y-54571448D01*
X145155814Y-54488186D01*
X145072552Y-54386729D01*
X145043222Y-54350991D01*
X144959557Y-54194466D01*
X144908037Y-54024627D01*
X144890641Y-53848000D01*
X144908037Y-53671373D01*
X144959557Y-53501534D01*
X145043222Y-53345009D01*
X145072552Y-53309271D01*
X145155814Y-53207814D01*
X145257271Y-53124552D01*
X145293009Y-53095222D01*
X145449534Y-53011557D01*
X145619373Y-52960037D01*
X145685557Y-52953519D01*
X145751740Y-52947000D01*
X145840260Y-52947000D01*
X145906443Y-52953519D01*
X145906443Y-52953519D01*
G37*
G36*
X143366443Y-52953519D02*
G01*
X143432627Y-52960037D01*
X143602466Y-53011557D01*
X143758991Y-53095222D01*
X143794729Y-53124552D01*
X143896186Y-53207814D01*
X143979448Y-53309271D01*
X144008778Y-53345009D01*
X144092443Y-53501534D01*
X144143963Y-53671373D01*
X144161359Y-53848000D01*
X144143963Y-54024627D01*
X144092443Y-54194466D01*
X144008778Y-54350991D01*
X143979448Y-54386729D01*
X143896186Y-54488186D01*
X143794729Y-54571448D01*
X143758991Y-54600778D01*
X143602466Y-54684443D01*
X143432627Y-54735963D01*
X143366442Y-54742482D01*
X143300260Y-54749000D01*
X143211740Y-54749000D01*
X143145558Y-54742482D01*
X143079373Y-54735963D01*
X142909534Y-54684443D01*
X142753009Y-54600778D01*
X142717271Y-54571448D01*
X142615814Y-54488186D01*
X142532552Y-54386729D01*
X142503222Y-54350991D01*
X142419557Y-54194466D01*
X142368037Y-54024627D01*
X142350641Y-53848000D01*
X142368037Y-53671373D01*
X142419557Y-53501534D01*
X142503222Y-53345009D01*
X142532552Y-53309271D01*
X142615814Y-53207814D01*
X142717271Y-53124552D01*
X142753009Y-53095222D01*
X142909534Y-53011557D01*
X143079373Y-52960037D01*
X143145557Y-52953519D01*
X143211740Y-52947000D01*
X143300260Y-52947000D01*
X143366443Y-52953519D01*
X143366443Y-52953519D01*
G37*
M02*
