G04 #@! TF.GenerationSoftware,KiCad,Pcbnew,(5.1.2)-2*
G04 #@! TF.CreationDate,2019-12-06T21:05:31-06:00*
G04 #@! TF.ProjectId,RGBSL,52474253-4c2e-46b6-9963-61645f706362,rev?*
G04 #@! TF.SameCoordinates,Original*
G04 #@! TF.FileFunction,Copper,L2,Bot*
G04 #@! TF.FilePolarity,Positive*
%FSLAX46Y46*%
G04 Gerber Fmt 4.6, Leading zero omitted, Abs format (unit mm)*
G04 Created by KiCad (PCBNEW (5.1.2)-2) date 2019-12-06 21:05:31*
%MOMM*%
%LPD*%
G04 APERTURE LIST*
%ADD10R,1.700000X1.700000*%
%ADD11O,1.700000X1.700000*%
%ADD12C,0.800000*%
%ADD13C,0.381000*%
%ADD14C,0.254000*%
G04 APERTURE END LIST*
D10*
X148336000Y-53848000D03*
D11*
X145796000Y-53848000D03*
X143256000Y-53848000D03*
D12*
X142240000Y-50800000D03*
X144780000Y-60960000D03*
X147320000Y-60960000D03*
X147320000Y-58420000D03*
X144780000Y-58420000D03*
X144780000Y-55880000D03*
X147320000Y-55880000D03*
X147320000Y-50800000D03*
X144780000Y-50800000D03*
X139700000Y-50800000D03*
X149860000Y-50800000D03*
X152400000Y-50800000D03*
X152400000Y-55880000D03*
X149860000Y-60960000D03*
X142240000Y-60960000D03*
X139700000Y-58420000D03*
X142240000Y-55880000D03*
X146050000Y-45720000D03*
X151130000Y-57150000D03*
X153670000Y-53340000D03*
X138430000Y-53340000D03*
X143510000Y-46990000D03*
X149860000Y-46990000D03*
X146685000Y-48260000D03*
X140970000Y-53340000D03*
X154305000Y-57785000D03*
X140335000Y-56515000D03*
X147320000Y-46482000D03*
X144780000Y-49530000D03*
X152654000Y-58928000D03*
X150622000Y-55372000D03*
X138176000Y-56896000D03*
D13*
X144946001Y-52998001D02*
X145796000Y-53848000D01*
X143989499Y-52041499D02*
X144946001Y-52998001D01*
X143989499Y-49150559D02*
X143989499Y-52041499D01*
X146658058Y-46482000D02*
X143989499Y-49150559D01*
X147320000Y-46482000D02*
X146658058Y-46482000D01*
X145345685Y-49530000D02*
X144780000Y-49530000D01*
X147219942Y-49530000D02*
X145345685Y-49530000D01*
X153190501Y-55500559D02*
X147219942Y-49530000D01*
X153190501Y-58391499D02*
X153190501Y-55500559D01*
X152654000Y-58928000D02*
X153190501Y-58391499D01*
X150222001Y-55771999D02*
X150622000Y-55372000D01*
X148688499Y-57305501D02*
X150222001Y-55771999D01*
X138585501Y-57305501D02*
X148688499Y-57305501D01*
X138176000Y-56896000D02*
X138585501Y-57305501D01*
D14*
G36*
X155998157Y-55626923D02*
G01*
X152670035Y-61570000D01*
X138994156Y-61570000D01*
X137147068Y-58535499D01*
X136145823Y-56819078D01*
X137395000Y-56819078D01*
X137395000Y-56972922D01*
X137425013Y-57123809D01*
X137483887Y-57265942D01*
X137569358Y-57393859D01*
X137678141Y-57502642D01*
X137806058Y-57588113D01*
X137948191Y-57646987D01*
X138099078Y-57677000D01*
X138148777Y-57677000D01*
X138161535Y-57689758D01*
X138179434Y-57711568D01*
X138266456Y-57782985D01*
X138365739Y-57836053D01*
X138473467Y-57868732D01*
X138585501Y-57879766D01*
X138613575Y-57877001D01*
X148660425Y-57877001D01*
X148688499Y-57879766D01*
X148716573Y-57877001D01*
X148800533Y-57868732D01*
X148908261Y-57836053D01*
X149007544Y-57782985D01*
X149094566Y-57711568D01*
X149112469Y-57689753D01*
X150645963Y-56156260D01*
X150645967Y-56156255D01*
X150649222Y-56153000D01*
X150698922Y-56153000D01*
X150849809Y-56122987D01*
X150991942Y-56064113D01*
X151119859Y-55978642D01*
X151228642Y-55869859D01*
X151314113Y-55741942D01*
X151372987Y-55599809D01*
X151403000Y-55448922D01*
X151403000Y-55295078D01*
X151372987Y-55144191D01*
X151314113Y-55002058D01*
X151228642Y-54874141D01*
X151119859Y-54765358D01*
X150991942Y-54679887D01*
X150849809Y-54621013D01*
X150698922Y-54591000D01*
X150545078Y-54591000D01*
X150394191Y-54621013D01*
X150252058Y-54679887D01*
X150124141Y-54765358D01*
X150015358Y-54874141D01*
X149929887Y-55002058D01*
X149871013Y-55144191D01*
X149841000Y-55295078D01*
X149841000Y-55344778D01*
X149837745Y-55348033D01*
X149837740Y-55348037D01*
X148451777Y-56734001D01*
X138940077Y-56734001D01*
X138926987Y-56668191D01*
X138868113Y-56526058D01*
X138782642Y-56398141D01*
X138673859Y-56289358D01*
X138545942Y-56203887D01*
X138403809Y-56145013D01*
X138252922Y-56115000D01*
X138099078Y-56115000D01*
X137948191Y-56145013D01*
X137806058Y-56203887D01*
X137678141Y-56289358D01*
X137569358Y-56398141D01*
X137483887Y-56526058D01*
X137425013Y-56668191D01*
X137395000Y-56819078D01*
X136145823Y-56819078D01*
X135599293Y-55882171D01*
X136811139Y-53848000D01*
X142019044Y-53848000D01*
X142042812Y-54089318D01*
X142113202Y-54321363D01*
X142227509Y-54535216D01*
X142381340Y-54722660D01*
X142568784Y-54876491D01*
X142782637Y-54990798D01*
X143014682Y-55061188D01*
X143195528Y-55079000D01*
X143316472Y-55079000D01*
X143497318Y-55061188D01*
X143729363Y-54990798D01*
X143943216Y-54876491D01*
X144130660Y-54722660D01*
X144284491Y-54535216D01*
X144398798Y-54321363D01*
X144469188Y-54089318D01*
X144492956Y-53848000D01*
X144469188Y-53606682D01*
X144398798Y-53374637D01*
X144284491Y-53160784D01*
X144210945Y-53071167D01*
X144561740Y-53421963D01*
X144561745Y-53421967D01*
X144620900Y-53481122D01*
X144582812Y-53606682D01*
X144559044Y-53848000D01*
X144582812Y-54089318D01*
X144653202Y-54321363D01*
X144767509Y-54535216D01*
X144921340Y-54722660D01*
X145108784Y-54876491D01*
X145322637Y-54990798D01*
X145554682Y-55061188D01*
X145735528Y-55079000D01*
X145856472Y-55079000D01*
X146037318Y-55061188D01*
X146269363Y-54990798D01*
X146483216Y-54876491D01*
X146670660Y-54722660D01*
X146690897Y-54698000D01*
X147103157Y-54698000D01*
X147110513Y-54772689D01*
X147132299Y-54844508D01*
X147167678Y-54910696D01*
X147215289Y-54968711D01*
X147273304Y-55016322D01*
X147339492Y-55051701D01*
X147411311Y-55073487D01*
X147486000Y-55080843D01*
X147986750Y-55079000D01*
X148082000Y-54983750D01*
X148082000Y-54102000D01*
X148590000Y-54102000D01*
X148590000Y-54983750D01*
X148685250Y-55079000D01*
X149186000Y-55080843D01*
X149260689Y-55073487D01*
X149332508Y-55051701D01*
X149398696Y-55016322D01*
X149456711Y-54968711D01*
X149504322Y-54910696D01*
X149539701Y-54844508D01*
X149561487Y-54772689D01*
X149568843Y-54698000D01*
X149567000Y-54197250D01*
X149471750Y-54102000D01*
X148590000Y-54102000D01*
X148082000Y-54102000D01*
X147200250Y-54102000D01*
X147105000Y-54197250D01*
X147103157Y-54698000D01*
X146690897Y-54698000D01*
X146824491Y-54535216D01*
X146938798Y-54321363D01*
X147009188Y-54089318D01*
X147032956Y-53848000D01*
X147009188Y-53606682D01*
X146938798Y-53374637D01*
X146824491Y-53160784D01*
X146690898Y-52998000D01*
X147103157Y-52998000D01*
X147105000Y-53498750D01*
X147200250Y-53594000D01*
X148082000Y-53594000D01*
X148082000Y-52712250D01*
X148590000Y-52712250D01*
X148590000Y-53594000D01*
X149471750Y-53594000D01*
X149567000Y-53498750D01*
X149568843Y-52998000D01*
X149561487Y-52923311D01*
X149539701Y-52851492D01*
X149504322Y-52785304D01*
X149456711Y-52727289D01*
X149398696Y-52679678D01*
X149332508Y-52644299D01*
X149260689Y-52622513D01*
X149186000Y-52615157D01*
X148685250Y-52617000D01*
X148590000Y-52712250D01*
X148082000Y-52712250D01*
X147986750Y-52617000D01*
X147486000Y-52615157D01*
X147411311Y-52622513D01*
X147339492Y-52644299D01*
X147273304Y-52679678D01*
X147215289Y-52727289D01*
X147167678Y-52785304D01*
X147132299Y-52851492D01*
X147110513Y-52923311D01*
X147103157Y-52998000D01*
X146690898Y-52998000D01*
X146670660Y-52973340D01*
X146483216Y-52819509D01*
X146269363Y-52705202D01*
X146037318Y-52634812D01*
X145856472Y-52617000D01*
X145735528Y-52617000D01*
X145554682Y-52634812D01*
X145429122Y-52672900D01*
X145369967Y-52613745D01*
X145369963Y-52613740D01*
X144560999Y-51804777D01*
X144560999Y-50282739D01*
X144703078Y-50311000D01*
X144856922Y-50311000D01*
X145007809Y-50280987D01*
X145149942Y-50222113D01*
X145277859Y-50136642D01*
X145313001Y-50101500D01*
X146983220Y-50101500D01*
X152619002Y-55737283D01*
X152619001Y-58147000D01*
X152577078Y-58147000D01*
X152426191Y-58177013D01*
X152284058Y-58235887D01*
X152156141Y-58321358D01*
X152047358Y-58430141D01*
X151961887Y-58558058D01*
X151903013Y-58700191D01*
X151873000Y-58851078D01*
X151873000Y-59004922D01*
X151903013Y-59155809D01*
X151961887Y-59297942D01*
X152047358Y-59425859D01*
X152156141Y-59534642D01*
X152284058Y-59620113D01*
X152426191Y-59678987D01*
X152577078Y-59709000D01*
X152730922Y-59709000D01*
X152881809Y-59678987D01*
X153023942Y-59620113D01*
X153151859Y-59534642D01*
X153260642Y-59425859D01*
X153346113Y-59297942D01*
X153404987Y-59155809D01*
X153435000Y-59004922D01*
X153435000Y-58955223D01*
X153574759Y-58815464D01*
X153596568Y-58797566D01*
X153667985Y-58710544D01*
X153721053Y-58611261D01*
X153753732Y-58503533D01*
X153762001Y-58419573D01*
X153762001Y-58419572D01*
X153764766Y-58391499D01*
X153762001Y-58363425D01*
X153762001Y-55528633D01*
X153764766Y-55500559D01*
X153753732Y-55388526D01*
X153753494Y-55387739D01*
X153721053Y-55280797D01*
X153667985Y-55181514D01*
X153596568Y-55094492D01*
X153574758Y-55076593D01*
X147643912Y-49145748D01*
X147626009Y-49123933D01*
X147538987Y-49052516D01*
X147439704Y-48999448D01*
X147331976Y-48966769D01*
X147248016Y-48958500D01*
X147219942Y-48955735D01*
X147191868Y-48958500D01*
X145313001Y-48958500D01*
X145277859Y-48923358D01*
X145149942Y-48837887D01*
X145121977Y-48826303D01*
X146844619Y-47103662D01*
X146950058Y-47174113D01*
X147092191Y-47232987D01*
X147243078Y-47263000D01*
X147396922Y-47263000D01*
X147547809Y-47232987D01*
X147689942Y-47174113D01*
X147817859Y-47088642D01*
X147926642Y-46979859D01*
X148012113Y-46851942D01*
X148070987Y-46709809D01*
X148101000Y-46558922D01*
X148101000Y-46405078D01*
X148070987Y-46254191D01*
X148012113Y-46112058D01*
X147926642Y-45984141D01*
X147817859Y-45875358D01*
X147689942Y-45789887D01*
X147547809Y-45731013D01*
X147396922Y-45701000D01*
X147243078Y-45701000D01*
X147092191Y-45731013D01*
X146950058Y-45789887D01*
X146822141Y-45875358D01*
X146786999Y-45910500D01*
X146686129Y-45910500D01*
X146658057Y-45907735D01*
X146629985Y-45910500D01*
X146629984Y-45910500D01*
X146546024Y-45918769D01*
X146438296Y-45951448D01*
X146339013Y-46004516D01*
X146251991Y-46075933D01*
X146234092Y-46097743D01*
X143605247Y-48726589D01*
X143583432Y-48744492D01*
X143512016Y-48831514D01*
X143512015Y-48831515D01*
X143458947Y-48930798D01*
X143426268Y-49038526D01*
X143415234Y-49150559D01*
X143417999Y-49178633D01*
X143418000Y-52013415D01*
X143415234Y-52041499D01*
X143426268Y-52153532D01*
X143458947Y-52261260D01*
X143458948Y-52261261D01*
X143512016Y-52360544D01*
X143583433Y-52447566D01*
X143605243Y-52465465D01*
X144032834Y-52893056D01*
X143943216Y-52819509D01*
X143729363Y-52705202D01*
X143497318Y-52634812D01*
X143316472Y-52617000D01*
X143195528Y-52617000D01*
X143014682Y-52634812D01*
X142782637Y-52705202D01*
X142568784Y-52819509D01*
X142381340Y-52973340D01*
X142227509Y-53160784D01*
X142113202Y-53374637D01*
X142042812Y-53606682D01*
X142019044Y-53848000D01*
X136811139Y-53848000D01*
X142470715Y-44348000D01*
X149623114Y-44348000D01*
X155998157Y-55626923D01*
X155998157Y-55626923D01*
G37*
X155998157Y-55626923D02*
X152670035Y-61570000D01*
X138994156Y-61570000D01*
X137147068Y-58535499D01*
X136145823Y-56819078D01*
X137395000Y-56819078D01*
X137395000Y-56972922D01*
X137425013Y-57123809D01*
X137483887Y-57265942D01*
X137569358Y-57393859D01*
X137678141Y-57502642D01*
X137806058Y-57588113D01*
X137948191Y-57646987D01*
X138099078Y-57677000D01*
X138148777Y-57677000D01*
X138161535Y-57689758D01*
X138179434Y-57711568D01*
X138266456Y-57782985D01*
X138365739Y-57836053D01*
X138473467Y-57868732D01*
X138585501Y-57879766D01*
X138613575Y-57877001D01*
X148660425Y-57877001D01*
X148688499Y-57879766D01*
X148716573Y-57877001D01*
X148800533Y-57868732D01*
X148908261Y-57836053D01*
X149007544Y-57782985D01*
X149094566Y-57711568D01*
X149112469Y-57689753D01*
X150645963Y-56156260D01*
X150645967Y-56156255D01*
X150649222Y-56153000D01*
X150698922Y-56153000D01*
X150849809Y-56122987D01*
X150991942Y-56064113D01*
X151119859Y-55978642D01*
X151228642Y-55869859D01*
X151314113Y-55741942D01*
X151372987Y-55599809D01*
X151403000Y-55448922D01*
X151403000Y-55295078D01*
X151372987Y-55144191D01*
X151314113Y-55002058D01*
X151228642Y-54874141D01*
X151119859Y-54765358D01*
X150991942Y-54679887D01*
X150849809Y-54621013D01*
X150698922Y-54591000D01*
X150545078Y-54591000D01*
X150394191Y-54621013D01*
X150252058Y-54679887D01*
X150124141Y-54765358D01*
X150015358Y-54874141D01*
X149929887Y-55002058D01*
X149871013Y-55144191D01*
X149841000Y-55295078D01*
X149841000Y-55344778D01*
X149837745Y-55348033D01*
X149837740Y-55348037D01*
X148451777Y-56734001D01*
X138940077Y-56734001D01*
X138926987Y-56668191D01*
X138868113Y-56526058D01*
X138782642Y-56398141D01*
X138673859Y-56289358D01*
X138545942Y-56203887D01*
X138403809Y-56145013D01*
X138252922Y-56115000D01*
X138099078Y-56115000D01*
X137948191Y-56145013D01*
X137806058Y-56203887D01*
X137678141Y-56289358D01*
X137569358Y-56398141D01*
X137483887Y-56526058D01*
X137425013Y-56668191D01*
X137395000Y-56819078D01*
X136145823Y-56819078D01*
X135599293Y-55882171D01*
X136811139Y-53848000D01*
X142019044Y-53848000D01*
X142042812Y-54089318D01*
X142113202Y-54321363D01*
X142227509Y-54535216D01*
X142381340Y-54722660D01*
X142568784Y-54876491D01*
X142782637Y-54990798D01*
X143014682Y-55061188D01*
X143195528Y-55079000D01*
X143316472Y-55079000D01*
X143497318Y-55061188D01*
X143729363Y-54990798D01*
X143943216Y-54876491D01*
X144130660Y-54722660D01*
X144284491Y-54535216D01*
X144398798Y-54321363D01*
X144469188Y-54089318D01*
X144492956Y-53848000D01*
X144469188Y-53606682D01*
X144398798Y-53374637D01*
X144284491Y-53160784D01*
X144210945Y-53071167D01*
X144561740Y-53421963D01*
X144561745Y-53421967D01*
X144620900Y-53481122D01*
X144582812Y-53606682D01*
X144559044Y-53848000D01*
X144582812Y-54089318D01*
X144653202Y-54321363D01*
X144767509Y-54535216D01*
X144921340Y-54722660D01*
X145108784Y-54876491D01*
X145322637Y-54990798D01*
X145554682Y-55061188D01*
X145735528Y-55079000D01*
X145856472Y-55079000D01*
X146037318Y-55061188D01*
X146269363Y-54990798D01*
X146483216Y-54876491D01*
X146670660Y-54722660D01*
X146690897Y-54698000D01*
X147103157Y-54698000D01*
X147110513Y-54772689D01*
X147132299Y-54844508D01*
X147167678Y-54910696D01*
X147215289Y-54968711D01*
X147273304Y-55016322D01*
X147339492Y-55051701D01*
X147411311Y-55073487D01*
X147486000Y-55080843D01*
X147986750Y-55079000D01*
X148082000Y-54983750D01*
X148082000Y-54102000D01*
X148590000Y-54102000D01*
X148590000Y-54983750D01*
X148685250Y-55079000D01*
X149186000Y-55080843D01*
X149260689Y-55073487D01*
X149332508Y-55051701D01*
X149398696Y-55016322D01*
X149456711Y-54968711D01*
X149504322Y-54910696D01*
X149539701Y-54844508D01*
X149561487Y-54772689D01*
X149568843Y-54698000D01*
X149567000Y-54197250D01*
X149471750Y-54102000D01*
X148590000Y-54102000D01*
X148082000Y-54102000D01*
X147200250Y-54102000D01*
X147105000Y-54197250D01*
X147103157Y-54698000D01*
X146690897Y-54698000D01*
X146824491Y-54535216D01*
X146938798Y-54321363D01*
X147009188Y-54089318D01*
X147032956Y-53848000D01*
X147009188Y-53606682D01*
X146938798Y-53374637D01*
X146824491Y-53160784D01*
X146690898Y-52998000D01*
X147103157Y-52998000D01*
X147105000Y-53498750D01*
X147200250Y-53594000D01*
X148082000Y-53594000D01*
X148082000Y-52712250D01*
X148590000Y-52712250D01*
X148590000Y-53594000D01*
X149471750Y-53594000D01*
X149567000Y-53498750D01*
X149568843Y-52998000D01*
X149561487Y-52923311D01*
X149539701Y-52851492D01*
X149504322Y-52785304D01*
X149456711Y-52727289D01*
X149398696Y-52679678D01*
X149332508Y-52644299D01*
X149260689Y-52622513D01*
X149186000Y-52615157D01*
X148685250Y-52617000D01*
X148590000Y-52712250D01*
X148082000Y-52712250D01*
X147986750Y-52617000D01*
X147486000Y-52615157D01*
X147411311Y-52622513D01*
X147339492Y-52644299D01*
X147273304Y-52679678D01*
X147215289Y-52727289D01*
X147167678Y-52785304D01*
X147132299Y-52851492D01*
X147110513Y-52923311D01*
X147103157Y-52998000D01*
X146690898Y-52998000D01*
X146670660Y-52973340D01*
X146483216Y-52819509D01*
X146269363Y-52705202D01*
X146037318Y-52634812D01*
X145856472Y-52617000D01*
X145735528Y-52617000D01*
X145554682Y-52634812D01*
X145429122Y-52672900D01*
X145369967Y-52613745D01*
X145369963Y-52613740D01*
X144560999Y-51804777D01*
X144560999Y-50282739D01*
X144703078Y-50311000D01*
X144856922Y-50311000D01*
X145007809Y-50280987D01*
X145149942Y-50222113D01*
X145277859Y-50136642D01*
X145313001Y-50101500D01*
X146983220Y-50101500D01*
X152619002Y-55737283D01*
X152619001Y-58147000D01*
X152577078Y-58147000D01*
X152426191Y-58177013D01*
X152284058Y-58235887D01*
X152156141Y-58321358D01*
X152047358Y-58430141D01*
X151961887Y-58558058D01*
X151903013Y-58700191D01*
X151873000Y-58851078D01*
X151873000Y-59004922D01*
X151903013Y-59155809D01*
X151961887Y-59297942D01*
X152047358Y-59425859D01*
X152156141Y-59534642D01*
X152284058Y-59620113D01*
X152426191Y-59678987D01*
X152577078Y-59709000D01*
X152730922Y-59709000D01*
X152881809Y-59678987D01*
X153023942Y-59620113D01*
X153151859Y-59534642D01*
X153260642Y-59425859D01*
X153346113Y-59297942D01*
X153404987Y-59155809D01*
X153435000Y-59004922D01*
X153435000Y-58955223D01*
X153574759Y-58815464D01*
X153596568Y-58797566D01*
X153667985Y-58710544D01*
X153721053Y-58611261D01*
X153753732Y-58503533D01*
X153762001Y-58419573D01*
X153762001Y-58419572D01*
X153764766Y-58391499D01*
X153762001Y-58363425D01*
X153762001Y-55528633D01*
X153764766Y-55500559D01*
X153753732Y-55388526D01*
X153753494Y-55387739D01*
X153721053Y-55280797D01*
X153667985Y-55181514D01*
X153596568Y-55094492D01*
X153574758Y-55076593D01*
X147643912Y-49145748D01*
X147626009Y-49123933D01*
X147538987Y-49052516D01*
X147439704Y-48999448D01*
X147331976Y-48966769D01*
X147248016Y-48958500D01*
X147219942Y-48955735D01*
X147191868Y-48958500D01*
X145313001Y-48958500D01*
X145277859Y-48923358D01*
X145149942Y-48837887D01*
X145121977Y-48826303D01*
X146844619Y-47103662D01*
X146950058Y-47174113D01*
X147092191Y-47232987D01*
X147243078Y-47263000D01*
X147396922Y-47263000D01*
X147547809Y-47232987D01*
X147689942Y-47174113D01*
X147817859Y-47088642D01*
X147926642Y-46979859D01*
X148012113Y-46851942D01*
X148070987Y-46709809D01*
X148101000Y-46558922D01*
X148101000Y-46405078D01*
X148070987Y-46254191D01*
X148012113Y-46112058D01*
X147926642Y-45984141D01*
X147817859Y-45875358D01*
X147689942Y-45789887D01*
X147547809Y-45731013D01*
X147396922Y-45701000D01*
X147243078Y-45701000D01*
X147092191Y-45731013D01*
X146950058Y-45789887D01*
X146822141Y-45875358D01*
X146786999Y-45910500D01*
X146686129Y-45910500D01*
X146658057Y-45907735D01*
X146629985Y-45910500D01*
X146629984Y-45910500D01*
X146546024Y-45918769D01*
X146438296Y-45951448D01*
X146339013Y-46004516D01*
X146251991Y-46075933D01*
X146234092Y-46097743D01*
X143605247Y-48726589D01*
X143583432Y-48744492D01*
X143512016Y-48831514D01*
X143512015Y-48831515D01*
X143458947Y-48930798D01*
X143426268Y-49038526D01*
X143415234Y-49150559D01*
X143417999Y-49178633D01*
X143418000Y-52013415D01*
X143415234Y-52041499D01*
X143426268Y-52153532D01*
X143458947Y-52261260D01*
X143458948Y-52261261D01*
X143512016Y-52360544D01*
X143583433Y-52447566D01*
X143605243Y-52465465D01*
X144032834Y-52893056D01*
X143943216Y-52819509D01*
X143729363Y-52705202D01*
X143497318Y-52634812D01*
X143316472Y-52617000D01*
X143195528Y-52617000D01*
X143014682Y-52634812D01*
X142782637Y-52705202D01*
X142568784Y-52819509D01*
X142381340Y-52973340D01*
X142227509Y-53160784D01*
X142113202Y-53374637D01*
X142042812Y-53606682D01*
X142019044Y-53848000D01*
X136811139Y-53848000D01*
X142470715Y-44348000D01*
X149623114Y-44348000D01*
X155998157Y-55626923D01*
M02*
