G04 #@! TF.GenerationSoftware,KiCad,Pcbnew,5.1.5-52549c5~84~ubuntu16.04.1*
G04 #@! TF.CreationDate,2019-12-06T18:45:02-05:00*
G04 #@! TF.ProjectId,RGBSL,52474253-4c2e-46b6-9963-61645f706362,rev?*
G04 #@! TF.SameCoordinates,Original*
G04 #@! TF.FileFunction,Soldermask,Bot*
G04 #@! TF.FilePolarity,Negative*
%FSLAX46Y46*%
G04 Gerber Fmt 4.6, Leading zero omitted, Abs format (unit mm)*
G04 Created by KiCad (PCBNEW 5.1.5-52549c5~84~ubuntu16.04.1) date 2019-12-06 18:45:02*
%MOMM*%
%LPD*%
G04 APERTURE LIST*
%ADD10C,0.100000*%
G04 APERTURE END LIST*
D10*
G36*
X149237000Y-54749000D02*
G01*
X147435000Y-54749000D01*
X147435000Y-52947000D01*
X149237000Y-52947000D01*
X149237000Y-54749000D01*
G37*
G36*
X145909512Y-52951927D02*
G01*
X146058812Y-52981624D01*
X146222784Y-53049544D01*
X146370354Y-53148147D01*
X146495853Y-53273646D01*
X146594456Y-53421216D01*
X146662376Y-53585188D01*
X146697000Y-53759259D01*
X146697000Y-53936741D01*
X146662376Y-54110812D01*
X146594456Y-54274784D01*
X146495853Y-54422354D01*
X146370354Y-54547853D01*
X146222784Y-54646456D01*
X146058812Y-54714376D01*
X145909512Y-54744073D01*
X145884742Y-54749000D01*
X145707258Y-54749000D01*
X145682488Y-54744073D01*
X145533188Y-54714376D01*
X145369216Y-54646456D01*
X145221646Y-54547853D01*
X145096147Y-54422354D01*
X144997544Y-54274784D01*
X144929624Y-54110812D01*
X144895000Y-53936741D01*
X144895000Y-53759259D01*
X144929624Y-53585188D01*
X144997544Y-53421216D01*
X145096147Y-53273646D01*
X145221646Y-53148147D01*
X145369216Y-53049544D01*
X145533188Y-52981624D01*
X145682488Y-52951927D01*
X145707258Y-52947000D01*
X145884742Y-52947000D01*
X145909512Y-52951927D01*
G37*
G36*
X143369512Y-52951927D02*
G01*
X143518812Y-52981624D01*
X143682784Y-53049544D01*
X143830354Y-53148147D01*
X143955853Y-53273646D01*
X144054456Y-53421216D01*
X144122376Y-53585188D01*
X144157000Y-53759259D01*
X144157000Y-53936741D01*
X144122376Y-54110812D01*
X144054456Y-54274784D01*
X143955853Y-54422354D01*
X143830354Y-54547853D01*
X143682784Y-54646456D01*
X143518812Y-54714376D01*
X143369512Y-54744073D01*
X143344742Y-54749000D01*
X143167258Y-54749000D01*
X143142488Y-54744073D01*
X142993188Y-54714376D01*
X142829216Y-54646456D01*
X142681646Y-54547853D01*
X142556147Y-54422354D01*
X142457544Y-54274784D01*
X142389624Y-54110812D01*
X142355000Y-53936741D01*
X142355000Y-53759259D01*
X142389624Y-53585188D01*
X142457544Y-53421216D01*
X142556147Y-53273646D01*
X142681646Y-53148147D01*
X142829216Y-53049544D01*
X142993188Y-52981624D01*
X143142488Y-52951927D01*
X143167258Y-52947000D01*
X143344742Y-52947000D01*
X143369512Y-52951927D01*
G37*
M02*
