M48
; DRILL file {KiCad (5.1.2)-2} date 12/6/2019 9:05:29 PM
; FORMAT={-:-/ absolute / inch / decimal}
; #@! TF.CreationDate,2019-12-06T21:05:29-06:00
; #@! TF.GenerationSoftware,Kicad,Pcbnew,(5.1.2)-2
FMAT,2
INCH
T1C0.0157
T2C0.0394
%
G90
G05
T1
X5.44Y-2.24
X5.45Y-2.1
X5.5Y-2.0
X5.5Y-2.3
X5.525Y-2.225
X5.55Y-2.1
X5.6Y-2.0
X5.6Y-2.2
X5.6Y-2.4
X5.65Y-1.85
X5.7Y-1.95
X5.7Y-2.0
X5.7Y-2.2
X5.7Y-2.3
X5.7Y-2.4
X5.75Y-1.8
X5.775Y-1.9
X5.8Y-1.83
X5.8Y-2.0
X5.8Y-2.2
X5.8Y-2.3
X5.8Y-2.4
X5.9Y-1.85
X5.9Y-2.0
X5.9Y-2.4
X5.93Y-2.18
X5.95Y-2.25
X6.0Y-2.0
X6.0Y-2.2
X6.01Y-2.32
X6.05Y-2.1
X6.075Y-2.275
T2
X5.64Y-2.12
X5.74Y-2.12
X5.84Y-2.12
T0
M30
