G04 #@! TF.GenerationSoftware,KiCad,Pcbnew,5.1.5-52549c5~84~ubuntu16.04.1*
G04 #@! TF.CreationDate,2019-12-08T15:12:46-05:00*
G04 #@! TF.ProjectId,RGBSL,52474253-4c2e-46b6-9963-61645f706362,1a*
G04 #@! TF.SameCoordinates,Original*
G04 #@! TF.FileFunction,Legend,Top*
G04 #@! TF.FilePolarity,Positive*
%FSLAX46Y46*%
G04 Gerber Fmt 4.6, Leading zero omitted, Abs format (unit mm)*
G04 Created by KiCad (PCBNEW 5.1.5-52549c5~84~ubuntu16.04.1) date 2019-12-08 15:12:46*
%MOMM*%
%LPD*%
G04 APERTURE LIST*
%ADD10C,0.508000*%
%ADD11C,0.203200*%
%ADD12C,0.300000*%
%ADD13C,0.120000*%
%ADD14C,0.150000*%
G04 APERTURE END LIST*
D10*
X140167480Y-103087714D02*
X141135100Y-103087714D01*
X140636171Y-102241047D02*
X140364028Y-104418190D01*
X140454742Y-104660095D01*
X140681528Y-104781047D01*
X140923433Y-104781047D01*
X141664266Y-104660095D02*
X141891052Y-104781047D01*
X142374861Y-104781047D01*
X142631885Y-104660095D01*
X142783076Y-104418190D01*
X142798195Y-104297238D01*
X142707480Y-104055333D01*
X142480695Y-103934380D01*
X142117838Y-103934380D01*
X141891052Y-103813428D01*
X141800338Y-103571523D01*
X141815457Y-103450571D01*
X141966647Y-103208666D01*
X142223671Y-103087714D01*
X142586528Y-103087714D01*
X142813314Y-103208666D01*
D11*
X128765904Y-101382285D02*
X129152952Y-101382285D01*
X128911047Y-102059619D02*
X128911047Y-101188761D01*
X128959428Y-101092000D01*
X129056190Y-101043619D01*
X129152952Y-101043619D01*
X129636761Y-102059619D02*
X129540000Y-102011238D01*
X129491619Y-101962857D01*
X129443238Y-101866095D01*
X129443238Y-101575809D01*
X129491619Y-101479047D01*
X129540000Y-101430666D01*
X129636761Y-101382285D01*
X129781904Y-101382285D01*
X129878666Y-101430666D01*
X129927047Y-101479047D01*
X129975428Y-101575809D01*
X129975428Y-101866095D01*
X129927047Y-101962857D01*
X129878666Y-102011238D01*
X129781904Y-102059619D01*
X129636761Y-102059619D01*
X130410857Y-102059619D02*
X130410857Y-101382285D01*
X130410857Y-101575809D02*
X130459238Y-101479047D01*
X130507619Y-101430666D01*
X130604380Y-101382285D01*
X130701142Y-101382285D01*
X132152571Y-101527428D02*
X131813904Y-101527428D01*
X131813904Y-102059619D02*
X131813904Y-101043619D01*
X132297714Y-101043619D01*
X133265333Y-102059619D02*
X132926666Y-101575809D01*
X132684761Y-102059619D02*
X132684761Y-101043619D01*
X133071809Y-101043619D01*
X133168571Y-101092000D01*
X133216952Y-101140380D01*
X133265333Y-101237142D01*
X133265333Y-101382285D01*
X133216952Y-101479047D01*
X133168571Y-101527428D01*
X133071809Y-101575809D01*
X132684761Y-101575809D01*
X134281333Y-101962857D02*
X134232952Y-102011238D01*
X134087809Y-102059619D01*
X133991047Y-102059619D01*
X133845904Y-102011238D01*
X133749142Y-101914476D01*
X133700761Y-101817714D01*
X133652380Y-101624190D01*
X133652380Y-101479047D01*
X133700761Y-101285523D01*
X133749142Y-101188761D01*
X133845904Y-101092000D01*
X133991047Y-101043619D01*
X134087809Y-101043619D01*
X134232952Y-101092000D01*
X134281333Y-101140380D01*
D12*
X126492571Y-100246571D02*
X126349714Y-100175142D01*
X126278285Y-100032285D01*
X126278285Y-98746571D01*
X127064000Y-100246571D02*
X127064000Y-99246571D01*
X127064000Y-98746571D02*
X126992571Y-98818000D01*
X127064000Y-98889428D01*
X127135428Y-98818000D01*
X127064000Y-98746571D01*
X127064000Y-98889428D01*
X128421142Y-99246571D02*
X128421142Y-100460857D01*
X128349714Y-100603714D01*
X128278285Y-100675142D01*
X128135428Y-100746571D01*
X127921142Y-100746571D01*
X127778285Y-100675142D01*
X128421142Y-100175142D02*
X128278285Y-100246571D01*
X127992571Y-100246571D01*
X127849714Y-100175142D01*
X127778285Y-100103714D01*
X127706857Y-99960857D01*
X127706857Y-99532285D01*
X127778285Y-99389428D01*
X127849714Y-99318000D01*
X127992571Y-99246571D01*
X128278285Y-99246571D01*
X128421142Y-99318000D01*
X129135428Y-100246571D02*
X129135428Y-98746571D01*
X129778285Y-100246571D02*
X129778285Y-99460857D01*
X129706857Y-99318000D01*
X129564000Y-99246571D01*
X129349714Y-99246571D01*
X129206857Y-99318000D01*
X129135428Y-99389428D01*
X130278285Y-99246571D02*
X130849714Y-99246571D01*
X130492571Y-98746571D02*
X130492571Y-100032285D01*
X130564000Y-100175142D01*
X130706857Y-100246571D01*
X130849714Y-100246571D01*
X131349714Y-99246571D02*
X131349714Y-100746571D01*
X131349714Y-99318000D02*
X131492571Y-99246571D01*
X131778285Y-99246571D01*
X131921142Y-99318000D01*
X131992571Y-99389428D01*
X132064000Y-99532285D01*
X132064000Y-99960857D01*
X131992571Y-100103714D01*
X131921142Y-100175142D01*
X131778285Y-100246571D01*
X131492571Y-100246571D01*
X131349714Y-100175142D01*
X133349714Y-99246571D02*
X133349714Y-100246571D01*
X132706857Y-99246571D02*
X132706857Y-100032285D01*
X132778285Y-100175142D01*
X132921142Y-100246571D01*
X133135428Y-100246571D01*
X133278285Y-100175142D01*
X133349714Y-100103714D01*
X134706857Y-100175142D02*
X134564000Y-100246571D01*
X134278285Y-100246571D01*
X134135428Y-100175142D01*
X134064000Y-100103714D01*
X133992571Y-99960857D01*
X133992571Y-99532285D01*
X134064000Y-99389428D01*
X134135428Y-99318000D01*
X134278285Y-99246571D01*
X134564000Y-99246571D01*
X134706857Y-99318000D01*
X135349714Y-100246571D02*
X135349714Y-98746571D01*
X135492571Y-99675142D02*
X135921142Y-100246571D01*
X135921142Y-99246571D02*
X135349714Y-99818000D01*
D10*
X139865100Y-99023714D02*
X140832719Y-99023714D01*
X140333790Y-98177047D02*
X140061647Y-100354190D01*
X140152361Y-100596095D01*
X140379147Y-100717047D01*
X140621052Y-100717047D01*
X141679385Y-99023714D02*
X141407242Y-101200857D01*
X141256052Y-101442761D01*
X140999028Y-101563714D01*
X140878076Y-101563714D01*
X141785219Y-98177047D02*
X141649147Y-98298000D01*
X141754980Y-98418952D01*
X141891052Y-98298000D01*
X141785219Y-98177047D01*
X141754980Y-98418952D01*
X142526052Y-99023714D02*
X143493671Y-99023714D01*
X142677242Y-100717047D02*
X142949385Y-98539904D01*
X143100576Y-98298000D01*
X143357600Y-98177047D01*
X143599504Y-98177047D01*
D12*
X139636571Y-97643142D02*
X140779428Y-97643142D01*
X137275142Y-98214571D02*
X137275142Y-96714571D01*
X137632285Y-96714571D01*
X137846571Y-96786000D01*
X137989428Y-96928857D01*
X138060857Y-97071714D01*
X138132285Y-97357428D01*
X138132285Y-97571714D01*
X138060857Y-97857428D01*
X137989428Y-98000285D01*
X137846571Y-98143142D01*
X137632285Y-98214571D01*
X137275142Y-98214571D01*
X134556571Y-97389142D02*
X135699428Y-97389142D01*
X135128000Y-97960571D02*
X135128000Y-96817714D01*
D13*
X148613748Y-90243251D02*
X148352496Y-89790749D01*
X149843504Y-89533251D02*
X149582252Y-89080749D01*
X126214252Y-88719251D02*
X126475504Y-88266749D01*
X124984496Y-88009251D02*
X125245748Y-87556749D01*
X136898748Y-107240000D02*
X137421252Y-107240000D01*
X136898748Y-108660000D02*
X137421252Y-108660000D01*
X133510000Y-109010000D02*
X140810000Y-109010000D01*
X133510000Y-114510000D02*
X140810000Y-114510000D01*
X140810000Y-114510000D02*
X140810000Y-113360000D01*
X126380570Y-84320007D02*
X125384641Y-83745007D01*
X122730570Y-90641993D02*
X126380570Y-84320007D01*
X117967430Y-87891993D02*
X121617430Y-81570007D01*
X151589430Y-90641993D02*
X147939430Y-84320007D01*
X156352570Y-87891993D02*
X152702570Y-81570007D01*
X152702570Y-81570007D02*
X151706641Y-82145007D01*
X140148500Y-93072000D02*
X140148500Y-91812000D01*
X140148500Y-86252000D02*
X140148500Y-87512000D01*
X136388500Y-93072000D02*
X140148500Y-93072000D01*
X134138500Y-86252000D02*
X140148500Y-86252000D01*
X145109221Y-87349903D02*
X145478687Y-86980437D01*
X146113313Y-88353995D02*
X146482779Y-87984529D01*
X138378000Y-102877252D02*
X138378000Y-102354748D01*
X136958000Y-102877252D02*
X136958000Y-102354748D01*
D14*
X147276429Y-90521233D02*
X147211381Y-90503804D01*
X147098713Y-90403895D01*
X147051094Y-90321417D01*
X147020904Y-90173889D01*
X147055764Y-90043791D01*
X147114433Y-89954933D01*
X147255581Y-89818456D01*
X147379299Y-89747027D01*
X147568065Y-89693028D01*
X147674353Y-89686649D01*
X147804451Y-89721508D01*
X147917119Y-89821417D01*
X147964738Y-89903895D01*
X147994927Y-90051423D01*
X147977498Y-90116471D01*
X147670141Y-91393639D02*
X147384427Y-90898767D01*
X147527284Y-91146203D02*
X148393310Y-90646203D01*
X148221973Y-90635153D01*
X148091875Y-90600293D01*
X148003017Y-90541624D01*
X124527019Y-87635908D02*
X124544449Y-87700957D01*
X124514259Y-87848485D01*
X124466640Y-87930963D01*
X124353973Y-88030872D01*
X124223875Y-88065731D01*
X124117587Y-88059352D01*
X123928820Y-88005353D01*
X123805102Y-87933924D01*
X123663954Y-87797447D01*
X123605285Y-87708588D01*
X123570426Y-87578491D01*
X123600615Y-87430963D01*
X123648234Y-87348485D01*
X123760902Y-87248576D01*
X123825951Y-87231147D01*
X124016427Y-86901232D02*
X123998997Y-86836183D01*
X124005377Y-86729895D01*
X124124425Y-86523699D01*
X124213283Y-86465030D01*
X124278332Y-86447600D01*
X124384620Y-86453980D01*
X124467098Y-86501599D01*
X124567007Y-86614266D01*
X124776164Y-87394852D01*
X125085688Y-86858741D01*
X136993333Y-106657142D02*
X136945714Y-106704761D01*
X136802857Y-106752380D01*
X136707619Y-106752380D01*
X136564761Y-106704761D01*
X136469523Y-106609523D01*
X136421904Y-106514285D01*
X136374285Y-106323809D01*
X136374285Y-106180952D01*
X136421904Y-105990476D01*
X136469523Y-105895238D01*
X136564761Y-105800000D01*
X136707619Y-105752380D01*
X136802857Y-105752380D01*
X136945714Y-105800000D01*
X136993333Y-105847619D01*
X137326666Y-105752380D02*
X137945714Y-105752380D01*
X137612380Y-106133333D01*
X137755238Y-106133333D01*
X137850476Y-106180952D01*
X137898095Y-106228571D01*
X137945714Y-106323809D01*
X137945714Y-106561904D01*
X137898095Y-106657142D01*
X137850476Y-106704761D01*
X137755238Y-106752380D01*
X137469523Y-106752380D01*
X137374285Y-106704761D01*
X137326666Y-106657142D01*
X136421904Y-108712380D02*
X136421904Y-107712380D01*
X136660000Y-107712380D01*
X136802857Y-107760000D01*
X136898095Y-107855238D01*
X136945714Y-107950476D01*
X136993333Y-108140952D01*
X136993333Y-108283809D01*
X136945714Y-108474285D01*
X136898095Y-108569523D01*
X136802857Y-108664761D01*
X136660000Y-108712380D01*
X136421904Y-108712380D01*
X137945714Y-108712380D02*
X137374285Y-108712380D01*
X137660000Y-108712380D02*
X137660000Y-107712380D01*
X137564761Y-107855238D01*
X137469523Y-107950476D01*
X137374285Y-107998095D01*
X133295714Y-110612380D02*
X132724285Y-110612380D01*
X133010000Y-110612380D02*
X133010000Y-109612380D01*
X132914761Y-109755238D01*
X132819523Y-109850476D01*
X132724285Y-109898095D01*
X121054600Y-90954726D02*
X121554600Y-90088701D01*
X121760796Y-90207748D01*
X121860705Y-90320416D01*
X121895564Y-90450514D01*
X121889185Y-90556802D01*
X121835186Y-90745569D01*
X121763757Y-90869287D01*
X121627280Y-91010435D01*
X121538421Y-91069104D01*
X121408324Y-91103963D01*
X121260796Y-91073774D01*
X121054600Y-90954726D01*
X122331767Y-90647370D02*
X122396816Y-90629940D01*
X122503104Y-90636320D01*
X122709300Y-90755368D01*
X122767969Y-90844226D01*
X122785399Y-90909275D01*
X122779019Y-91015563D01*
X122731400Y-91098041D01*
X122618733Y-91197950D01*
X121838147Y-91407107D01*
X122374258Y-91716631D01*
X119247989Y-88878759D02*
X118962275Y-89373631D01*
X119105132Y-89126195D02*
X118239106Y-88626195D01*
X118315205Y-88780102D01*
X118350065Y-88910200D01*
X118343685Y-89016488D01*
X148354089Y-87442981D02*
X149220115Y-86942981D01*
X149339163Y-87149177D01*
X149369352Y-87296705D01*
X149334492Y-87426802D01*
X149275823Y-87515661D01*
X149134675Y-87652138D01*
X149010958Y-87723567D01*
X148822191Y-87777565D01*
X148715903Y-87783945D01*
X148585805Y-87749086D01*
X148473137Y-87649177D01*
X148354089Y-87442981D01*
X149672496Y-87726528D02*
X149982020Y-88262639D01*
X149485439Y-88164440D01*
X149556867Y-88288157D01*
X149563247Y-88394446D01*
X149545817Y-88459494D01*
X149487148Y-88548353D01*
X149280951Y-88667400D01*
X149174663Y-88673780D01*
X149109615Y-88656350D01*
X149020756Y-88597681D01*
X148877899Y-88350245D01*
X148871519Y-88243957D01*
X148888949Y-88178908D01*
X152586442Y-90973631D02*
X152300728Y-90478759D01*
X152443585Y-90726195D02*
X153309611Y-90226195D01*
X153138274Y-90215145D01*
X153008176Y-90180285D01*
X152919318Y-90121616D01*
X137905166Y-84614380D02*
X137905166Y-85328666D01*
X137857547Y-85471523D01*
X137762309Y-85566761D01*
X137619452Y-85614380D01*
X137524214Y-85614380D01*
X138333738Y-84709619D02*
X138381357Y-84662000D01*
X138476595Y-84614380D01*
X138714690Y-84614380D01*
X138809928Y-84662000D01*
X138857547Y-84709619D01*
X138905166Y-84804857D01*
X138905166Y-84900095D01*
X138857547Y-85042952D01*
X138286119Y-85614380D01*
X138905166Y-85614380D01*
X144763961Y-86870879D02*
X144763961Y-86938222D01*
X144696617Y-87072909D01*
X144629274Y-87140253D01*
X144494586Y-87207596D01*
X144359899Y-87207596D01*
X144258884Y-87173925D01*
X144090525Y-87072909D01*
X143989510Y-86971894D01*
X143888495Y-86803535D01*
X143854823Y-86702520D01*
X143854823Y-86567833D01*
X143922167Y-86433146D01*
X143989510Y-86365802D01*
X144124197Y-86298459D01*
X144191541Y-86298459D01*
X144965991Y-85860726D02*
X145437396Y-86332131D01*
X144528258Y-85759711D02*
X144864976Y-86433146D01*
X145302709Y-85995413D01*
X136375142Y-102782666D02*
X136422761Y-102830285D01*
X136470380Y-102973142D01*
X136470380Y-103068380D01*
X136422761Y-103211238D01*
X136327523Y-103306476D01*
X136232285Y-103354095D01*
X136041809Y-103401714D01*
X135898952Y-103401714D01*
X135708476Y-103354095D01*
X135613238Y-103306476D01*
X135518000Y-103211238D01*
X135470380Y-103068380D01*
X135470380Y-102973142D01*
X135518000Y-102830285D01*
X135565619Y-102782666D01*
X135470380Y-101877904D02*
X135470380Y-102354095D01*
X135946571Y-102401714D01*
X135898952Y-102354095D01*
X135851333Y-102258857D01*
X135851333Y-102020761D01*
X135898952Y-101925523D01*
X135946571Y-101877904D01*
X136041809Y-101830285D01*
X136279904Y-101830285D01*
X136375142Y-101877904D01*
X136422761Y-101925523D01*
X136470380Y-102020761D01*
X136470380Y-102258857D01*
X136422761Y-102354095D01*
X136375142Y-102401714D01*
M02*
