M48
; DRILL file {KiCad 5.1.5-52549c5~84~ubuntu16.04.1} date Sun 08 Dec 2019 03:12:44 PM EST
; FORMAT={-:-/ absolute / inch / decimal}
; #@! TF.CreationDate,2019-12-08T15:12:44-05:00
; #@! TF.GenerationSoftware,Kicad,Pcbnew,5.1.5-52549c5~84~ubuntu16.04.1
; #@! TF.FileFunction,Plated,1,2,PTH
FMAT,2
INCH
T1C0.0157
T2C0.0394
%
G90
G05
T1
X4.74Y-3.56
X4.81Y-3.38
X4.84Y-3.66
X4.85Y-3.34
X4.88Y-3.62
X4.92Y-3.7
X4.96Y-3.84
X4.99Y-3.37
X5.0Y-3.78
X5.02Y-3.7
X5.04Y-4.0
X5.08Y-3.84
X5.1Y-3.44
X5.1Y-3.6
X5.1Y-4.14
X5.13Y-3.37
X5.16Y-4.02
X5.16Y-4.22
X5.2Y-3.86
X5.22Y-3.5
X5.22Y-3.64
X5.22Y-4.1
X5.23Y-4.4
X5.24Y-4.16
X5.56Y-3.66
X5.6Y-4.0
X5.6Y-4.26
X5.64Y-3.68
X5.64Y-4.18
X5.66Y-3.78
X5.68Y-3.62
X5.685Y-3.565
X5.7Y-4.08
X5.72Y-3.36
X5.72Y-3.7
X5.74Y-4.0
X5.76Y-3.86
X5.8Y-3.66
X5.8Y-3.9
X5.82Y-3.36
X5.88Y-3.7
X5.96Y-3.64
T2
X5.32Y-3.75
X5.42Y-3.75
X5.52Y-3.75
T0
M30
