G04 #@! TF.GenerationSoftware,KiCad,Pcbnew,(5.1.2)-2*
G04 #@! TF.CreationDate,2019-12-06T21:05:31-06:00*
G04 #@! TF.ProjectId,RGBSL,52474253-4c2e-46b6-9963-61645f706362,rev?*
G04 #@! TF.SameCoordinates,Original*
G04 #@! TF.FileFunction,Paste,Top*
G04 #@! TF.FilePolarity,Positive*
%FSLAX46Y46*%
G04 Gerber Fmt 4.6, Leading zero omitted, Abs format (unit mm)*
G04 Created by KiCad (PCBNEW (5.1.2)-2) date 2019-12-06 21:05:31*
%MOMM*%
%LPD*%
G04 APERTURE LIST*
%ADD10C,1.000000*%
%ADD11C,0.100000*%
%ADD12R,1.500000X1.000000*%
G04 APERTURE END LIST*
D10*
X139285359Y-60325762D03*
D11*
G36*
X140093372Y-60725281D02*
G01*
X139227346Y-61225281D01*
X138477346Y-59926243D01*
X139343372Y-59426243D01*
X140093372Y-60725281D01*
X140093372Y-60725281D01*
G37*
D10*
X142056641Y-58725762D03*
D11*
G36*
X142864654Y-59125281D02*
G01*
X141998628Y-59625281D01*
X141248628Y-58326243D01*
X142114654Y-57826243D01*
X142864654Y-59125281D01*
X142864654Y-59125281D01*
G37*
D10*
X136835359Y-56082238D03*
D11*
G36*
X137643372Y-56481757D02*
G01*
X136777346Y-56981757D01*
X136027346Y-55682719D01*
X136893372Y-55182719D01*
X137643372Y-56481757D01*
X137643372Y-56481757D01*
G37*
D10*
X139606641Y-54482238D03*
D11*
G36*
X140414654Y-54881757D02*
G01*
X139548628Y-55381757D01*
X138798628Y-54082719D01*
X139664654Y-53582719D01*
X140414654Y-54881757D01*
X140414654Y-54881757D01*
G37*
D10*
X154756641Y-56082238D03*
D11*
G36*
X154698628Y-55182719D02*
G01*
X155564654Y-55682719D01*
X154814654Y-56981757D01*
X153948628Y-56481757D01*
X154698628Y-55182719D01*
X154698628Y-55182719D01*
G37*
D10*
X151985359Y-54482238D03*
D11*
G36*
X151927346Y-53582719D02*
G01*
X152793372Y-54082719D01*
X152043372Y-55381757D01*
X151177346Y-54881757D01*
X151927346Y-53582719D01*
X151927346Y-53582719D01*
G37*
D10*
X152306641Y-60325762D03*
D11*
G36*
X152248628Y-59426243D02*
G01*
X153114654Y-59926243D01*
X152364654Y-61225281D01*
X151498628Y-60725281D01*
X152248628Y-59426243D01*
X152248628Y-59426243D01*
G37*
D10*
X149535359Y-58725762D03*
D11*
G36*
X149477346Y-57826243D02*
G01*
X150343372Y-58326243D01*
X149593372Y-59625281D01*
X148727346Y-59125281D01*
X149477346Y-57826243D01*
X149477346Y-57826243D01*
G37*
D12*
X143600000Y-45390000D03*
X143600000Y-48590000D03*
X148500000Y-45390000D03*
X148500000Y-48590000D03*
M02*
