G04 #@! TF.GenerationSoftware,KiCad,Pcbnew,5.1.5-52549c5~84~ubuntu16.04.1*
G04 #@! TF.CreationDate,2019-12-08T15:12:46-05:00*
G04 #@! TF.ProjectId,RGBSL,52474253-4c2e-46b6-9963-61645f706362,1a*
G04 #@! TF.SameCoordinates,Original*
G04 #@! TF.FileFunction,Soldermask,Top*
G04 #@! TF.FilePolarity,Negative*
%FSLAX46Y46*%
G04 Gerber Fmt 4.6, Leading zero omitted, Abs format (unit mm)*
G04 Created by KiCad (PCBNEW 5.1.5-52549c5~84~ubuntu16.04.1) date 2019-12-08 15:12:46*
%MOMM*%
%LPD*%
G04 APERTURE LIST*
%ADD10C,0.100000*%
G04 APERTURE END LIST*
D10*
G36*
X140411000Y-113911000D02*
G01*
X138809000Y-113911000D01*
X138809000Y-112809000D01*
X140411000Y-112809000D01*
X140411000Y-113911000D01*
G37*
G36*
X135511000Y-113911000D02*
G01*
X133909000Y-113911000D01*
X133909000Y-112809000D01*
X135511000Y-112809000D01*
X135511000Y-113911000D01*
G37*
G36*
X140411000Y-110711000D02*
G01*
X138809000Y-110711000D01*
X138809000Y-109609000D01*
X140411000Y-109609000D01*
X140411000Y-110711000D01*
G37*
G36*
X135511000Y-110711000D02*
G01*
X133909000Y-110711000D01*
X133909000Y-109609000D01*
X135511000Y-109609000D01*
X135511000Y-110711000D01*
G37*
G36*
X138648674Y-107203465D02*
G01*
X138686367Y-107214899D01*
X138721103Y-107233466D01*
X138751548Y-107258452D01*
X138776534Y-107288897D01*
X138795101Y-107323633D01*
X138806535Y-107361326D01*
X138811000Y-107406661D01*
X138811000Y-108493339D01*
X138806535Y-108538674D01*
X138795101Y-108576367D01*
X138776534Y-108611103D01*
X138751548Y-108641548D01*
X138721103Y-108666534D01*
X138686367Y-108685101D01*
X138648674Y-108696535D01*
X138603339Y-108701000D01*
X137766661Y-108701000D01*
X137721326Y-108696535D01*
X137683633Y-108685101D01*
X137648897Y-108666534D01*
X137618452Y-108641548D01*
X137593466Y-108611103D01*
X137574899Y-108576367D01*
X137563465Y-108538674D01*
X137559000Y-108493339D01*
X137559000Y-107406661D01*
X137563465Y-107361326D01*
X137574899Y-107323633D01*
X137593466Y-107288897D01*
X137618452Y-107258452D01*
X137648897Y-107233466D01*
X137683633Y-107214899D01*
X137721326Y-107203465D01*
X137766661Y-107199000D01*
X138603339Y-107199000D01*
X138648674Y-107203465D01*
G37*
G36*
X136598674Y-107203465D02*
G01*
X136636367Y-107214899D01*
X136671103Y-107233466D01*
X136701548Y-107258452D01*
X136726534Y-107288897D01*
X136745101Y-107323633D01*
X136756535Y-107361326D01*
X136761000Y-107406661D01*
X136761000Y-108493339D01*
X136756535Y-108538674D01*
X136745101Y-108576367D01*
X136726534Y-108611103D01*
X136701548Y-108641548D01*
X136671103Y-108666534D01*
X136636367Y-108685101D01*
X136598674Y-108696535D01*
X136553339Y-108701000D01*
X135716661Y-108701000D01*
X135671326Y-108696535D01*
X135633633Y-108685101D01*
X135598897Y-108666534D01*
X135568452Y-108641548D01*
X135543466Y-108611103D01*
X135524899Y-108576367D01*
X135513465Y-108538674D01*
X135509000Y-108493339D01*
X135509000Y-107406661D01*
X135513465Y-107361326D01*
X135524899Y-107323633D01*
X135543466Y-107288897D01*
X135568452Y-107258452D01*
X135598897Y-107233466D01*
X135633633Y-107214899D01*
X135671326Y-107203465D01*
X135716661Y-107199000D01*
X136553339Y-107199000D01*
X136598674Y-107203465D01*
G37*
G36*
X138256674Y-103019465D02*
G01*
X138294367Y-103030899D01*
X138329103Y-103049466D01*
X138359548Y-103074452D01*
X138384534Y-103104897D01*
X138403101Y-103139633D01*
X138414535Y-103177326D01*
X138419000Y-103222661D01*
X138419000Y-104059339D01*
X138414535Y-104104674D01*
X138403101Y-104142367D01*
X138384534Y-104177103D01*
X138359548Y-104207548D01*
X138329103Y-104232534D01*
X138294367Y-104251101D01*
X138256674Y-104262535D01*
X138211339Y-104267000D01*
X137124661Y-104267000D01*
X137079326Y-104262535D01*
X137041633Y-104251101D01*
X137006897Y-104232534D01*
X136976452Y-104207548D01*
X136951466Y-104177103D01*
X136932899Y-104142367D01*
X136921465Y-104104674D01*
X136917000Y-104059339D01*
X136917000Y-103222661D01*
X136921465Y-103177326D01*
X136932899Y-103139633D01*
X136951466Y-103104897D01*
X136976452Y-103074452D01*
X137006897Y-103049466D01*
X137041633Y-103030899D01*
X137079326Y-103019465D01*
X137124661Y-103015000D01*
X138211339Y-103015000D01*
X138256674Y-103019465D01*
G37*
G36*
X138256674Y-100969465D02*
G01*
X138294367Y-100980899D01*
X138329103Y-100999466D01*
X138359548Y-101024452D01*
X138384534Y-101054897D01*
X138403101Y-101089633D01*
X138414535Y-101127326D01*
X138419000Y-101172661D01*
X138419000Y-102009339D01*
X138414535Y-102054674D01*
X138403101Y-102092367D01*
X138384534Y-102127103D01*
X138359548Y-102157548D01*
X138329103Y-102182534D01*
X138294367Y-102201101D01*
X138256674Y-102212535D01*
X138211339Y-102217000D01*
X137124661Y-102217000D01*
X137079326Y-102212535D01*
X137041633Y-102201101D01*
X137006897Y-102182534D01*
X136976452Y-102157548D01*
X136951466Y-102127103D01*
X136932899Y-102092367D01*
X136921465Y-102054674D01*
X136917000Y-102009339D01*
X136917000Y-101172661D01*
X136921465Y-101127326D01*
X136932899Y-101089633D01*
X136951466Y-101054897D01*
X136976452Y-101024452D01*
X137006897Y-100999466D01*
X137041633Y-100980899D01*
X137079326Y-100969465D01*
X137124661Y-100965000D01*
X138211339Y-100965000D01*
X138256674Y-100969465D01*
G37*
G36*
X148711256Y-94911298D02*
G01*
X148817579Y-94932447D01*
X149118042Y-95056903D01*
X149388451Y-95237585D01*
X149618415Y-95467549D01*
X149799097Y-95737958D01*
X149923553Y-96038421D01*
X149987000Y-96357391D01*
X149987000Y-96682609D01*
X149923553Y-97001579D01*
X149799097Y-97302042D01*
X149618415Y-97572451D01*
X149388451Y-97802415D01*
X149118042Y-97983097D01*
X148817579Y-98107553D01*
X148711256Y-98128702D01*
X148498611Y-98171000D01*
X148173389Y-98171000D01*
X147960744Y-98128702D01*
X147854421Y-98107553D01*
X147553958Y-97983097D01*
X147283549Y-97802415D01*
X147053585Y-97572451D01*
X146872903Y-97302042D01*
X146748447Y-97001579D01*
X146685000Y-96682609D01*
X146685000Y-96357391D01*
X146748447Y-96038421D01*
X146872903Y-95737958D01*
X147053585Y-95467549D01*
X147283549Y-95237585D01*
X147553958Y-95056903D01*
X147854421Y-94932447D01*
X147960744Y-94911298D01*
X148173389Y-94869000D01*
X148498611Y-94869000D01*
X148711256Y-94911298D01*
G37*
G36*
X135241512Y-94353927D02*
G01*
X135390812Y-94383624D01*
X135554784Y-94451544D01*
X135702354Y-94550147D01*
X135827853Y-94675646D01*
X135926456Y-94823216D01*
X135994376Y-94987188D01*
X136029000Y-95161259D01*
X136029000Y-95338741D01*
X135994376Y-95512812D01*
X135926456Y-95676784D01*
X135827853Y-95824354D01*
X135702354Y-95949853D01*
X135554784Y-96048456D01*
X135390812Y-96116376D01*
X135241512Y-96146073D01*
X135216742Y-96151000D01*
X135039258Y-96151000D01*
X135014488Y-96146073D01*
X134865188Y-96116376D01*
X134701216Y-96048456D01*
X134553646Y-95949853D01*
X134428147Y-95824354D01*
X134329544Y-95676784D01*
X134261624Y-95512812D01*
X134227000Y-95338741D01*
X134227000Y-95161259D01*
X134261624Y-94987188D01*
X134329544Y-94823216D01*
X134428147Y-94675646D01*
X134553646Y-94550147D01*
X134701216Y-94451544D01*
X134865188Y-94383624D01*
X135014488Y-94353927D01*
X135039258Y-94349000D01*
X135216742Y-94349000D01*
X135241512Y-94353927D01*
G37*
G36*
X137781512Y-94353927D02*
G01*
X137930812Y-94383624D01*
X138094784Y-94451544D01*
X138242354Y-94550147D01*
X138367853Y-94675646D01*
X138466456Y-94823216D01*
X138534376Y-94987188D01*
X138569000Y-95161259D01*
X138569000Y-95338741D01*
X138534376Y-95512812D01*
X138466456Y-95676784D01*
X138367853Y-95824354D01*
X138242354Y-95949853D01*
X138094784Y-96048456D01*
X137930812Y-96116376D01*
X137781512Y-96146073D01*
X137756742Y-96151000D01*
X137579258Y-96151000D01*
X137554488Y-96146073D01*
X137405188Y-96116376D01*
X137241216Y-96048456D01*
X137093646Y-95949853D01*
X136968147Y-95824354D01*
X136869544Y-95676784D01*
X136801624Y-95512812D01*
X136767000Y-95338741D01*
X136767000Y-95161259D01*
X136801624Y-94987188D01*
X136869544Y-94823216D01*
X136968147Y-94675646D01*
X137093646Y-94550147D01*
X137241216Y-94451544D01*
X137405188Y-94383624D01*
X137554488Y-94353927D01*
X137579258Y-94349000D01*
X137756742Y-94349000D01*
X137781512Y-94353927D01*
G37*
G36*
X141109000Y-96151000D02*
G01*
X139307000Y-96151000D01*
X139307000Y-94349000D01*
X141109000Y-94349000D01*
X141109000Y-96151000D01*
G37*
G36*
X136277000Y-92463000D02*
G01*
X133975000Y-92463000D01*
X133975000Y-91361000D01*
X136277000Y-91361000D01*
X136277000Y-92463000D01*
G37*
G36*
X142377000Y-91413000D02*
G01*
X140475000Y-91413000D01*
X140475000Y-87911000D01*
X142377000Y-87911000D01*
X142377000Y-91413000D01*
G37*
G36*
X149926124Y-89713256D02*
G01*
X149962985Y-89727130D01*
X149996435Y-89747931D01*
X150025179Y-89774852D01*
X150051716Y-89811884D01*
X150083972Y-89867752D01*
X150083972Y-89867753D01*
X150416475Y-90443665D01*
X150470054Y-90536468D01*
X150488855Y-90577962D01*
X150497800Y-90616323D01*
X150499088Y-90655687D01*
X150492673Y-90694547D01*
X150478799Y-90731408D01*
X150457998Y-90764858D01*
X150431077Y-90793602D01*
X150394045Y-90820139D01*
X150338176Y-90852395D01*
X149508823Y-91331222D01*
X149508820Y-91331223D01*
X149452955Y-91363477D01*
X149411461Y-91382278D01*
X149373100Y-91391223D01*
X149333736Y-91392511D01*
X149294876Y-91386096D01*
X149258015Y-91372222D01*
X149224565Y-91351421D01*
X149195821Y-91324500D01*
X149169284Y-91287468D01*
X149137028Y-91231599D01*
X148783201Y-90618752D01*
X148783200Y-90618749D01*
X148750946Y-90562884D01*
X148732145Y-90521390D01*
X148723200Y-90483029D01*
X148721912Y-90443665D01*
X148728327Y-90404805D01*
X148742201Y-90367944D01*
X148763002Y-90334494D01*
X148789923Y-90305750D01*
X148826955Y-90279213D01*
X149315851Y-89996949D01*
X149712177Y-89768130D01*
X149712180Y-89768129D01*
X149768045Y-89735875D01*
X149809539Y-89717074D01*
X149847900Y-89708129D01*
X149887264Y-89706841D01*
X149926124Y-89713256D01*
G37*
G36*
X136277000Y-90963000D02*
G01*
X133975000Y-90963000D01*
X133975000Y-89861000D01*
X136277000Y-89861000D01*
X136277000Y-90963000D01*
G37*
G36*
X123212321Y-88609575D02*
G01*
X123212321Y-88609576D01*
X122933607Y-89092323D01*
X122411321Y-89996949D01*
X121456961Y-89445949D01*
X121456961Y-89445948D01*
X121939841Y-88609575D01*
X122257961Y-88058575D01*
X123212321Y-88609575D01*
G37*
G36*
X152380159Y-88609575D02*
G01*
X152863039Y-89445948D01*
X152863039Y-89445949D01*
X151908679Y-89996949D01*
X151386393Y-89092323D01*
X151107679Y-88609576D01*
X151107679Y-88609575D01*
X152062039Y-88058575D01*
X152380159Y-88609575D01*
G37*
G36*
X124980100Y-88184129D02*
G01*
X125018461Y-88193074D01*
X125059955Y-88211875D01*
X125115820Y-88244129D01*
X125115823Y-88244130D01*
X125748794Y-88609576D01*
X126001045Y-88755213D01*
X126038077Y-88781750D01*
X126064998Y-88810494D01*
X126085799Y-88843944D01*
X126099673Y-88880805D01*
X126106088Y-88919665D01*
X126104800Y-88959029D01*
X126095855Y-88997390D01*
X126077054Y-89038884D01*
X126044800Y-89094749D01*
X126044799Y-89094752D01*
X125691410Y-89706841D01*
X125658716Y-89763468D01*
X125632179Y-89800500D01*
X125603435Y-89827421D01*
X125569985Y-89848222D01*
X125533124Y-89862096D01*
X125494264Y-89868511D01*
X125454900Y-89867223D01*
X125416539Y-89858278D01*
X125375045Y-89839477D01*
X125319180Y-89807223D01*
X125319177Y-89807222D01*
X124489824Y-89328395D01*
X124433955Y-89296139D01*
X124396923Y-89269602D01*
X124370002Y-89240858D01*
X124349201Y-89207408D01*
X124335327Y-89170547D01*
X124328912Y-89131687D01*
X124330200Y-89092323D01*
X124339145Y-89053962D01*
X124357946Y-89012468D01*
X124411526Y-88919665D01*
X124744028Y-88343753D01*
X124744028Y-88343752D01*
X124776284Y-88287884D01*
X124802821Y-88250852D01*
X124831565Y-88223931D01*
X124865015Y-88203130D01*
X124901876Y-88189256D01*
X124940736Y-88182841D01*
X124980100Y-88184129D01*
G37*
G36*
X148901124Y-87937904D02*
G01*
X148937985Y-87951778D01*
X148971435Y-87972579D01*
X149000179Y-87999500D01*
X149026716Y-88036532D01*
X149058972Y-88092400D01*
X149058972Y-88092401D01*
X149391475Y-88668313D01*
X149445054Y-88761116D01*
X149463855Y-88802610D01*
X149472800Y-88840971D01*
X149474088Y-88880335D01*
X149467673Y-88919195D01*
X149453799Y-88956056D01*
X149432998Y-88989506D01*
X149406077Y-89018250D01*
X149369045Y-89044787D01*
X149313176Y-89077043D01*
X148483823Y-89555870D01*
X148483820Y-89555871D01*
X148427955Y-89588125D01*
X148386461Y-89606926D01*
X148348100Y-89615871D01*
X148308736Y-89617159D01*
X148269876Y-89610744D01*
X148233015Y-89596870D01*
X148199565Y-89576069D01*
X148170821Y-89549148D01*
X148144284Y-89512116D01*
X148112028Y-89456247D01*
X147758201Y-88843400D01*
X147758200Y-88843397D01*
X147725946Y-88787532D01*
X147707145Y-88746038D01*
X147698200Y-88707677D01*
X147696912Y-88668313D01*
X147703327Y-88629453D01*
X147717201Y-88592592D01*
X147738002Y-88559142D01*
X147764923Y-88530398D01*
X147801955Y-88503861D01*
X147968393Y-88407768D01*
X148687177Y-87992778D01*
X148687180Y-87992777D01*
X148743045Y-87960523D01*
X148784539Y-87941722D01*
X148822900Y-87932777D01*
X148862264Y-87931489D01*
X148901124Y-87937904D01*
G37*
G36*
X136277000Y-89463000D02*
G01*
X133975000Y-89463000D01*
X133975000Y-88361000D01*
X136277000Y-88361000D01*
X136277000Y-89463000D01*
G37*
G36*
X145022023Y-87506252D02*
G01*
X145059716Y-87517686D01*
X145094452Y-87536253D01*
X145129665Y-87565151D01*
X145898065Y-88333551D01*
X145926963Y-88368764D01*
X145945530Y-88403500D01*
X145956964Y-88441193D01*
X145960824Y-88480388D01*
X145956964Y-88519583D01*
X145945530Y-88557276D01*
X145926963Y-88592012D01*
X145898065Y-88627225D01*
X145306441Y-89218849D01*
X145271228Y-89247747D01*
X145236492Y-89266314D01*
X145198799Y-89277748D01*
X145159604Y-89281608D01*
X145120409Y-89277748D01*
X145082716Y-89266314D01*
X145047980Y-89247747D01*
X145012767Y-89218849D01*
X144244367Y-88450449D01*
X144215469Y-88415236D01*
X144196902Y-88380500D01*
X144185468Y-88342807D01*
X144181608Y-88303612D01*
X144185468Y-88264417D01*
X144196902Y-88226724D01*
X144215469Y-88191988D01*
X144244367Y-88156775D01*
X144835991Y-87565151D01*
X144871204Y-87536253D01*
X144905940Y-87517686D01*
X144943633Y-87506252D01*
X144982828Y-87502392D01*
X145022023Y-87506252D01*
G37*
G36*
X120441039Y-87009575D02*
G01*
X120441039Y-87009576D01*
X120136962Y-87536253D01*
X119640039Y-88396949D01*
X118685679Y-87845949D01*
X118685679Y-87845948D01*
X119170394Y-87006398D01*
X119486679Y-86458575D01*
X120441039Y-87009575D01*
G37*
G36*
X155149606Y-87006398D02*
G01*
X155634321Y-87845948D01*
X155634321Y-87845949D01*
X154679961Y-88396949D01*
X154183038Y-87536253D01*
X153878961Y-87009576D01*
X153878961Y-87009575D01*
X154833321Y-86458575D01*
X155149606Y-87006398D01*
G37*
G36*
X126005100Y-86408777D02*
G01*
X126043461Y-86417722D01*
X126084955Y-86436523D01*
X126140820Y-86468777D01*
X126140823Y-86468778D01*
X126970176Y-86947605D01*
X127026045Y-86979861D01*
X127063077Y-87006398D01*
X127089998Y-87035142D01*
X127110799Y-87068592D01*
X127124673Y-87105453D01*
X127131088Y-87144313D01*
X127129800Y-87183677D01*
X127120855Y-87222038D01*
X127102054Y-87263532D01*
X127069800Y-87319397D01*
X127069799Y-87319400D01*
X126836398Y-87723662D01*
X126683716Y-87988116D01*
X126657179Y-88025148D01*
X126628435Y-88052069D01*
X126594985Y-88072870D01*
X126558124Y-88086744D01*
X126519264Y-88093159D01*
X126479900Y-88091871D01*
X126441539Y-88082926D01*
X126400045Y-88064125D01*
X126344180Y-88031871D01*
X126344177Y-88031870D01*
X125514824Y-87553043D01*
X125458955Y-87520787D01*
X125421923Y-87494250D01*
X125395002Y-87465506D01*
X125374201Y-87432056D01*
X125360327Y-87395195D01*
X125353912Y-87356335D01*
X125355200Y-87316971D01*
X125364145Y-87278610D01*
X125382946Y-87237116D01*
X125417275Y-87177657D01*
X125769028Y-86568401D01*
X125769028Y-86568400D01*
X125801284Y-86512532D01*
X125827821Y-86475500D01*
X125856565Y-86448579D01*
X125890015Y-86427778D01*
X125926876Y-86413904D01*
X125965736Y-86407489D01*
X126005100Y-86408777D01*
G37*
G36*
X136277000Y-87963000D02*
G01*
X133975000Y-87963000D01*
X133975000Y-86861000D01*
X136277000Y-86861000D01*
X136277000Y-87963000D01*
G37*
G36*
X146471591Y-86056684D02*
G01*
X146509284Y-86068118D01*
X146544020Y-86086685D01*
X146579233Y-86115583D01*
X147347633Y-86883983D01*
X147376531Y-86919196D01*
X147395098Y-86953932D01*
X147406532Y-86991625D01*
X147410392Y-87030820D01*
X147406532Y-87070015D01*
X147395098Y-87107708D01*
X147376531Y-87142444D01*
X147347633Y-87177657D01*
X146756009Y-87769281D01*
X146720796Y-87798179D01*
X146686060Y-87816746D01*
X146648367Y-87828180D01*
X146609172Y-87832040D01*
X146569977Y-87828180D01*
X146532284Y-87816746D01*
X146497548Y-87798179D01*
X146462335Y-87769281D01*
X145693935Y-87000881D01*
X145665037Y-86965668D01*
X145646470Y-86930932D01*
X145635036Y-86893239D01*
X145631176Y-86854044D01*
X145635036Y-86814849D01*
X145646470Y-86777156D01*
X145665037Y-86742420D01*
X145693935Y-86707207D01*
X146285559Y-86115583D01*
X146320772Y-86086685D01*
X146355508Y-86068118D01*
X146393201Y-86056684D01*
X146432396Y-86052824D01*
X146471591Y-86056684D01*
G37*
G36*
X149807399Y-84153425D02*
G01*
X150413039Y-85202424D01*
X150413039Y-85202425D01*
X149458679Y-85753425D01*
X149058179Y-85059738D01*
X148657679Y-84366052D01*
X148657679Y-84366051D01*
X149612039Y-83815051D01*
X149807399Y-84153425D01*
G37*
G36*
X125662321Y-84366051D02*
G01*
X125662321Y-84366052D01*
X125261821Y-85059738D01*
X124861321Y-85753425D01*
X123906961Y-85202425D01*
X123906961Y-85202424D01*
X124512601Y-84153425D01*
X124707961Y-83815051D01*
X125662321Y-84366051D01*
G37*
G36*
X152701441Y-82766051D02*
G01*
X153184321Y-83602424D01*
X153184321Y-83602425D01*
X152229961Y-84153425D01*
X151829461Y-83459738D01*
X151428961Y-82766052D01*
X151428961Y-82766051D01*
X152383321Y-82215051D01*
X152701441Y-82766051D01*
G37*
G36*
X122891039Y-82766051D02*
G01*
X122891039Y-82766052D01*
X122490539Y-83459738D01*
X122090039Y-84153425D01*
X121135679Y-83602425D01*
X121135679Y-83602424D01*
X121618559Y-82766051D01*
X121936679Y-82215051D01*
X122891039Y-82766051D01*
G37*
M02*
