G04 #@! TF.GenerationSoftware,KiCad,Pcbnew,5.1.5-52549c5~84~ubuntu16.04.1*
G04 #@! TF.CreationDate,2019-12-08T15:12:46-05:00*
G04 #@! TF.ProjectId,RGBSL,52474253-4c2e-46b6-9963-61645f706362,1a*
G04 #@! TF.SameCoordinates,Original*
G04 #@! TF.FileFunction,Copper,L2,Bot*
G04 #@! TF.FilePolarity,Positive*
%FSLAX46Y46*%
G04 Gerber Fmt 4.6, Leading zero omitted, Abs format (unit mm)*
G04 Created by KiCad (PCBNEW 5.1.5-52549c5~84~ubuntu16.04.1) date 2019-12-08 15:12:46*
%MOMM*%
%LPD*%
G04 APERTURE LIST*
%ADD10R,1.700000X1.700000*%
%ADD11O,1.700000X1.700000*%
%ADD12C,0.800000*%
%ADD13C,0.635000*%
%ADD14C,0.254000*%
G04 APERTURE END LIST*
D10*
X140208000Y-95250000D03*
D11*
X137668000Y-95250000D03*
X135128000Y-95250000D03*
D12*
X122174000Y-85852000D03*
X132842000Y-111760000D03*
X123190000Y-84836000D03*
X120396000Y-90424000D03*
X127508000Y-93980000D03*
X126746000Y-85598000D03*
X129540000Y-91440000D03*
X127000000Y-96012000D03*
X124968000Y-93980000D03*
X129032000Y-97536000D03*
X125984000Y-97536000D03*
X145288000Y-93980000D03*
X144399000Y-90551000D03*
X149352000Y-93980000D03*
X146304000Y-98044000D03*
X147320000Y-99060000D03*
X143256000Y-106172000D03*
X142240000Y-101600000D03*
X133096000Y-105664000D03*
X144272000Y-91948000D03*
X131064000Y-102108000D03*
X128016000Y-101600000D03*
X129540000Y-105156000D03*
X131064000Y-107188000D03*
X142240000Y-108204000D03*
X144780000Y-103632000D03*
X145796000Y-101600000D03*
X143764000Y-96012000D03*
X147320000Y-92964000D03*
X151384000Y-92456000D03*
X147828000Y-85344000D03*
X145288000Y-85344000D03*
X130302000Y-85598000D03*
X129540000Y-87376000D03*
X123952000Y-91948000D03*
X122936000Y-92964000D03*
X143256000Y-93472000D03*
X132588000Y-88900000D03*
X141224000Y-92964000D03*
X132588000Y-92456000D03*
X132080000Y-98044000D03*
X132588000Y-104140000D03*
D13*
X122174000Y-85852000D02*
X135128000Y-98806000D01*
X135128000Y-109474000D02*
X132842000Y-111760000D01*
X135128000Y-98806000D02*
X135128000Y-109474000D01*
X120396000Y-86272098D02*
X120396000Y-90424000D01*
X121832098Y-84836000D02*
X120396000Y-86272098D01*
X123190000Y-84836000D02*
X121832098Y-84836000D01*
X140208000Y-94742000D02*
X140208000Y-95250000D01*
X147320000Y-87630000D02*
X144399000Y-90551000D01*
X132041000Y-85598000D02*
X130302000Y-85598000D01*
X140208000Y-93765000D02*
X132041000Y-85598000D01*
X140208000Y-95250000D02*
X140208000Y-93765000D01*
X140208000Y-103124000D02*
X137414000Y-105918000D01*
X140208000Y-95250000D02*
X140208000Y-103124000D01*
X144399000Y-90551000D02*
X140208000Y-94742000D01*
X130302000Y-85598000D02*
X126746000Y-85598000D01*
D14*
G36*
X155707207Y-87870639D02*
G01*
X150571000Y-96651896D01*
X150571000Y-96299872D01*
X150485110Y-95868075D01*
X150316631Y-95461331D01*
X150072038Y-95095271D01*
X149760729Y-94783962D01*
X149394669Y-94539369D01*
X148987925Y-94370890D01*
X148556128Y-94285000D01*
X148115872Y-94285000D01*
X147684075Y-94370890D01*
X147277331Y-94539369D01*
X146911271Y-94783962D01*
X146599962Y-95095271D01*
X146355369Y-95461331D01*
X146186890Y-95868075D01*
X146101000Y-96299872D01*
X146101000Y-96740128D01*
X146186890Y-97171925D01*
X146355369Y-97578669D01*
X146599962Y-97944729D01*
X146911271Y-98256038D01*
X147277331Y-98500631D01*
X147684075Y-98669110D01*
X148115872Y-98755000D01*
X148556128Y-98755000D01*
X148987925Y-98669110D01*
X149394669Y-98500631D01*
X149550609Y-98396435D01*
X140337431Y-114148000D01*
X133982570Y-114148000D01*
X133163242Y-112747213D01*
X133332256Y-112677205D01*
X133501774Y-112563937D01*
X133645937Y-112419774D01*
X133759205Y-112250256D01*
X133801931Y-112147107D01*
X135768436Y-110180603D01*
X135804778Y-110150778D01*
X135923806Y-110005741D01*
X136012252Y-109840269D01*
X136066717Y-109660723D01*
X136080500Y-109520785D01*
X136085108Y-109474001D01*
X136080500Y-109427216D01*
X136080500Y-98852784D01*
X136085108Y-98805999D01*
X136066717Y-98619277D01*
X136012252Y-98439731D01*
X135923806Y-98274259D01*
X135804778Y-98129222D01*
X135768431Y-98099393D01*
X132772778Y-95103740D01*
X133643000Y-95103740D01*
X133643000Y-95396260D01*
X133700068Y-95683158D01*
X133812010Y-95953411D01*
X133974525Y-96196632D01*
X134181368Y-96403475D01*
X134424589Y-96565990D01*
X134694842Y-96677932D01*
X134981740Y-96735000D01*
X135274260Y-96735000D01*
X135561158Y-96677932D01*
X135831411Y-96565990D01*
X136074632Y-96403475D01*
X136281475Y-96196632D01*
X136398000Y-96022240D01*
X136514525Y-96196632D01*
X136721368Y-96403475D01*
X136964589Y-96565990D01*
X137234842Y-96677932D01*
X137521740Y-96735000D01*
X137814260Y-96735000D01*
X138101158Y-96677932D01*
X138371411Y-96565990D01*
X138614632Y-96403475D01*
X138746487Y-96271620D01*
X138768498Y-96344180D01*
X138827463Y-96454494D01*
X138906815Y-96551185D01*
X139003506Y-96630537D01*
X139113820Y-96689502D01*
X139233518Y-96725812D01*
X139358000Y-96738072D01*
X139922250Y-96735000D01*
X140081000Y-96576250D01*
X140081000Y-95377000D01*
X140335000Y-95377000D01*
X140335000Y-96576250D01*
X140493750Y-96735000D01*
X141058000Y-96738072D01*
X141182482Y-96725812D01*
X141302180Y-96689502D01*
X141412494Y-96630537D01*
X141509185Y-96551185D01*
X141588537Y-96454494D01*
X141647502Y-96344180D01*
X141683812Y-96224482D01*
X141696072Y-96100000D01*
X141693000Y-95535750D01*
X141534250Y-95377000D01*
X140335000Y-95377000D01*
X140081000Y-95377000D01*
X140061000Y-95377000D01*
X140061000Y-95123000D01*
X140081000Y-95123000D01*
X140081000Y-93923750D01*
X140335000Y-93923750D01*
X140335000Y-95123000D01*
X141534250Y-95123000D01*
X141693000Y-94964250D01*
X141696072Y-94400000D01*
X141683812Y-94275518D01*
X141647502Y-94155820D01*
X141588537Y-94045506D01*
X141509185Y-93948815D01*
X141412494Y-93869463D01*
X141302180Y-93810498D01*
X141182482Y-93774188D01*
X141058000Y-93761928D01*
X140493750Y-93765000D01*
X140335000Y-93923750D01*
X140081000Y-93923750D01*
X139922250Y-93765000D01*
X139358000Y-93761928D01*
X139233518Y-93774188D01*
X139113820Y-93810498D01*
X139003506Y-93869463D01*
X138906815Y-93948815D01*
X138827463Y-94045506D01*
X138768498Y-94155820D01*
X138746487Y-94228380D01*
X138614632Y-94096525D01*
X138371411Y-93934010D01*
X138101158Y-93822068D01*
X137814260Y-93765000D01*
X137521740Y-93765000D01*
X137234842Y-93822068D01*
X136964589Y-93934010D01*
X136721368Y-94096525D01*
X136514525Y-94303368D01*
X136398000Y-94477760D01*
X136281475Y-94303368D01*
X136074632Y-94096525D01*
X135831411Y-93934010D01*
X135561158Y-93822068D01*
X135274260Y-93765000D01*
X134981740Y-93765000D01*
X134694842Y-93822068D01*
X134424589Y-93934010D01*
X134181368Y-94096525D01*
X133974525Y-94303368D01*
X133812010Y-94546589D01*
X133700068Y-94816842D01*
X133643000Y-95103740D01*
X132772778Y-95103740D01*
X123497814Y-85828776D01*
X123680256Y-85753205D01*
X123849774Y-85639937D01*
X123993937Y-85495774D01*
X124107205Y-85326256D01*
X124185226Y-85137898D01*
X124225000Y-84937939D01*
X124225000Y-84734061D01*
X124185226Y-84534102D01*
X124107205Y-84345744D01*
X123993937Y-84176226D01*
X123849774Y-84032063D01*
X123680256Y-83918795D01*
X123491898Y-83840774D01*
X123291939Y-83801000D01*
X123088061Y-83801000D01*
X122888102Y-83840774D01*
X122784953Y-83883500D01*
X121878882Y-83883500D01*
X121832097Y-83878892D01*
X121645375Y-83897283D01*
X121465829Y-83951748D01*
X121300357Y-84040194D01*
X121155320Y-84159222D01*
X121125495Y-84195564D01*
X120541195Y-84779864D01*
X122288804Y-81940000D01*
X152513787Y-81940000D01*
X155707207Y-87870639D01*
G37*
X155707207Y-87870639D02*
X150571000Y-96651896D01*
X150571000Y-96299872D01*
X150485110Y-95868075D01*
X150316631Y-95461331D01*
X150072038Y-95095271D01*
X149760729Y-94783962D01*
X149394669Y-94539369D01*
X148987925Y-94370890D01*
X148556128Y-94285000D01*
X148115872Y-94285000D01*
X147684075Y-94370890D01*
X147277331Y-94539369D01*
X146911271Y-94783962D01*
X146599962Y-95095271D01*
X146355369Y-95461331D01*
X146186890Y-95868075D01*
X146101000Y-96299872D01*
X146101000Y-96740128D01*
X146186890Y-97171925D01*
X146355369Y-97578669D01*
X146599962Y-97944729D01*
X146911271Y-98256038D01*
X147277331Y-98500631D01*
X147684075Y-98669110D01*
X148115872Y-98755000D01*
X148556128Y-98755000D01*
X148987925Y-98669110D01*
X149394669Y-98500631D01*
X149550609Y-98396435D01*
X140337431Y-114148000D01*
X133982570Y-114148000D01*
X133163242Y-112747213D01*
X133332256Y-112677205D01*
X133501774Y-112563937D01*
X133645937Y-112419774D01*
X133759205Y-112250256D01*
X133801931Y-112147107D01*
X135768436Y-110180603D01*
X135804778Y-110150778D01*
X135923806Y-110005741D01*
X136012252Y-109840269D01*
X136066717Y-109660723D01*
X136080500Y-109520785D01*
X136085108Y-109474001D01*
X136080500Y-109427216D01*
X136080500Y-98852784D01*
X136085108Y-98805999D01*
X136066717Y-98619277D01*
X136012252Y-98439731D01*
X135923806Y-98274259D01*
X135804778Y-98129222D01*
X135768431Y-98099393D01*
X132772778Y-95103740D01*
X133643000Y-95103740D01*
X133643000Y-95396260D01*
X133700068Y-95683158D01*
X133812010Y-95953411D01*
X133974525Y-96196632D01*
X134181368Y-96403475D01*
X134424589Y-96565990D01*
X134694842Y-96677932D01*
X134981740Y-96735000D01*
X135274260Y-96735000D01*
X135561158Y-96677932D01*
X135831411Y-96565990D01*
X136074632Y-96403475D01*
X136281475Y-96196632D01*
X136398000Y-96022240D01*
X136514525Y-96196632D01*
X136721368Y-96403475D01*
X136964589Y-96565990D01*
X137234842Y-96677932D01*
X137521740Y-96735000D01*
X137814260Y-96735000D01*
X138101158Y-96677932D01*
X138371411Y-96565990D01*
X138614632Y-96403475D01*
X138746487Y-96271620D01*
X138768498Y-96344180D01*
X138827463Y-96454494D01*
X138906815Y-96551185D01*
X139003506Y-96630537D01*
X139113820Y-96689502D01*
X139233518Y-96725812D01*
X139358000Y-96738072D01*
X139922250Y-96735000D01*
X140081000Y-96576250D01*
X140081000Y-95377000D01*
X140335000Y-95377000D01*
X140335000Y-96576250D01*
X140493750Y-96735000D01*
X141058000Y-96738072D01*
X141182482Y-96725812D01*
X141302180Y-96689502D01*
X141412494Y-96630537D01*
X141509185Y-96551185D01*
X141588537Y-96454494D01*
X141647502Y-96344180D01*
X141683812Y-96224482D01*
X141696072Y-96100000D01*
X141693000Y-95535750D01*
X141534250Y-95377000D01*
X140335000Y-95377000D01*
X140081000Y-95377000D01*
X140061000Y-95377000D01*
X140061000Y-95123000D01*
X140081000Y-95123000D01*
X140081000Y-93923750D01*
X140335000Y-93923750D01*
X140335000Y-95123000D01*
X141534250Y-95123000D01*
X141693000Y-94964250D01*
X141696072Y-94400000D01*
X141683812Y-94275518D01*
X141647502Y-94155820D01*
X141588537Y-94045506D01*
X141509185Y-93948815D01*
X141412494Y-93869463D01*
X141302180Y-93810498D01*
X141182482Y-93774188D01*
X141058000Y-93761928D01*
X140493750Y-93765000D01*
X140335000Y-93923750D01*
X140081000Y-93923750D01*
X139922250Y-93765000D01*
X139358000Y-93761928D01*
X139233518Y-93774188D01*
X139113820Y-93810498D01*
X139003506Y-93869463D01*
X138906815Y-93948815D01*
X138827463Y-94045506D01*
X138768498Y-94155820D01*
X138746487Y-94228380D01*
X138614632Y-94096525D01*
X138371411Y-93934010D01*
X138101158Y-93822068D01*
X137814260Y-93765000D01*
X137521740Y-93765000D01*
X137234842Y-93822068D01*
X136964589Y-93934010D01*
X136721368Y-94096525D01*
X136514525Y-94303368D01*
X136398000Y-94477760D01*
X136281475Y-94303368D01*
X136074632Y-94096525D01*
X135831411Y-93934010D01*
X135561158Y-93822068D01*
X135274260Y-93765000D01*
X134981740Y-93765000D01*
X134694842Y-93822068D01*
X134424589Y-93934010D01*
X134181368Y-94096525D01*
X133974525Y-94303368D01*
X133812010Y-94546589D01*
X133700068Y-94816842D01*
X133643000Y-95103740D01*
X132772778Y-95103740D01*
X123497814Y-85828776D01*
X123680256Y-85753205D01*
X123849774Y-85639937D01*
X123993937Y-85495774D01*
X124107205Y-85326256D01*
X124185226Y-85137898D01*
X124225000Y-84937939D01*
X124225000Y-84734061D01*
X124185226Y-84534102D01*
X124107205Y-84345744D01*
X123993937Y-84176226D01*
X123849774Y-84032063D01*
X123680256Y-83918795D01*
X123491898Y-83840774D01*
X123291939Y-83801000D01*
X123088061Y-83801000D01*
X122888102Y-83840774D01*
X122784953Y-83883500D01*
X121878882Y-83883500D01*
X121832097Y-83878892D01*
X121645375Y-83897283D01*
X121465829Y-83951748D01*
X121300357Y-84040194D01*
X121155320Y-84159222D01*
X121125495Y-84195564D01*
X120541195Y-84779864D01*
X122288804Y-81940000D01*
X152513787Y-81940000D01*
X155707207Y-87870639D01*
G36*
X121514226Y-86655937D02*
G01*
X121683744Y-86769205D01*
X121786893Y-86811931D01*
X134175500Y-99200538D01*
X134175501Y-109079460D01*
X132454893Y-110800069D01*
X132351744Y-110842795D01*
X132182226Y-110956063D01*
X132140180Y-110998109D01*
X120689373Y-91420922D01*
X120697898Y-91419226D01*
X120886256Y-91341205D01*
X121055774Y-91227937D01*
X121199937Y-91083774D01*
X121313205Y-90914256D01*
X121391226Y-90725898D01*
X121431000Y-90525939D01*
X121431000Y-90322061D01*
X121391226Y-90122102D01*
X121348500Y-90018953D01*
X121348500Y-86666636D01*
X121436713Y-86578424D01*
X121514226Y-86655937D01*
G37*
X121514226Y-86655937D02*
X121683744Y-86769205D01*
X121786893Y-86811931D01*
X134175500Y-99200538D01*
X134175501Y-109079460D01*
X132454893Y-110800069D01*
X132351744Y-110842795D01*
X132182226Y-110956063D01*
X132140180Y-110998109D01*
X120689373Y-91420922D01*
X120697898Y-91419226D01*
X120886256Y-91341205D01*
X121055774Y-91227937D01*
X121199937Y-91083774D01*
X121313205Y-90914256D01*
X121391226Y-90725898D01*
X121431000Y-90525939D01*
X121431000Y-90322061D01*
X121391226Y-90122102D01*
X121348500Y-90018953D01*
X121348500Y-86666636D01*
X121436713Y-86578424D01*
X121514226Y-86655937D01*
M02*
