G04 #@! TF.GenerationSoftware,KiCad,Pcbnew,(5.1.2)-2*
G04 #@! TF.CreationDate,2019-12-06T21:05:31-06:00*
G04 #@! TF.ProjectId,RGBSL,52474253-4c2e-46b6-9963-61645f706362,rev?*
G04 #@! TF.SameCoordinates,Original*
G04 #@! TF.FileFunction,Soldermask,Top*
G04 #@! TF.FilePolarity,Negative*
%FSLAX46Y46*%
G04 Gerber Fmt 4.6, Leading zero omitted, Abs format (unit mm)*
G04 Created by KiCad (PCBNEW (5.1.2)-2) date 2019-12-06 21:05:31*
%MOMM*%
%LPD*%
G04 APERTURE LIST*
%ADD10C,0.100000*%
G04 APERTURE END LIST*
D10*
G36*
X153184321Y-59907575D02*
G01*
X153184321Y-59907576D01*
X152783821Y-60601262D01*
X152383321Y-61294949D01*
X151428961Y-60743949D01*
X151428961Y-60743948D01*
X152034601Y-59694949D01*
X152229961Y-59356575D01*
X153184321Y-59907575D01*
X153184321Y-59907575D01*
G37*
G36*
X139557399Y-59694949D02*
G01*
X140163039Y-60743948D01*
X140163039Y-60743949D01*
X139208679Y-61294949D01*
X138808179Y-60601262D01*
X138407679Y-59907576D01*
X138407679Y-59907575D01*
X139362039Y-59356575D01*
X139557399Y-59694949D01*
X139557399Y-59694949D01*
G37*
G36*
X142451441Y-58307575D02*
G01*
X142934321Y-59143948D01*
X142934321Y-59143949D01*
X141979961Y-59694949D01*
X141579461Y-59001262D01*
X141178961Y-58307576D01*
X141178961Y-58307575D01*
X142133321Y-57756575D01*
X142451441Y-58307575D01*
X142451441Y-58307575D01*
G37*
G36*
X150413039Y-58307575D02*
G01*
X150413039Y-58307576D01*
X150012539Y-59001262D01*
X149612039Y-59694949D01*
X148657679Y-59143949D01*
X148657679Y-59143948D01*
X149140559Y-58307575D01*
X149458679Y-57756575D01*
X150413039Y-58307575D01*
X150413039Y-58307575D01*
G37*
G36*
X155634321Y-55664051D02*
G01*
X155634321Y-55664052D01*
X155233821Y-56357738D01*
X154833321Y-57051425D01*
X153878961Y-56500425D01*
X153878961Y-56500424D01*
X154484601Y-55451425D01*
X154679961Y-55113051D01*
X155634321Y-55664051D01*
X155634321Y-55664051D01*
G37*
G36*
X137107399Y-55451425D02*
G01*
X137713039Y-56500424D01*
X137713039Y-56500425D01*
X136758679Y-57051425D01*
X136358179Y-56357738D01*
X135957679Y-55664052D01*
X135957679Y-55664051D01*
X136912039Y-55113051D01*
X137107399Y-55451425D01*
X137107399Y-55451425D01*
G37*
G36*
X139978678Y-54024625D02*
G01*
X140484321Y-54900424D01*
X140484321Y-54900425D01*
X139529961Y-55451425D01*
X138973835Y-54488186D01*
X138728961Y-54064052D01*
X138728961Y-54064051D01*
X139683321Y-53513051D01*
X139978678Y-54024625D01*
X139978678Y-54024625D01*
G37*
G36*
X152863039Y-54064051D02*
G01*
X152863039Y-54064052D01*
X152618165Y-54488186D01*
X152062039Y-55451425D01*
X151107679Y-54900425D01*
X151107679Y-54900424D01*
X151613322Y-54024625D01*
X151908679Y-53513051D01*
X152863039Y-54064051D01*
X152863039Y-54064051D01*
G37*
G36*
X143366443Y-52953519D02*
G01*
X143432627Y-52960037D01*
X143602466Y-53011557D01*
X143758991Y-53095222D01*
X143794729Y-53124552D01*
X143896186Y-53207814D01*
X143979448Y-53309271D01*
X144008778Y-53345009D01*
X144092443Y-53501534D01*
X144143963Y-53671373D01*
X144161359Y-53848000D01*
X144143963Y-54024627D01*
X144092443Y-54194466D01*
X144008778Y-54350991D01*
X143979448Y-54386729D01*
X143896186Y-54488186D01*
X143794729Y-54571448D01*
X143758991Y-54600778D01*
X143602466Y-54684443D01*
X143432627Y-54735963D01*
X143366442Y-54742482D01*
X143300260Y-54749000D01*
X143211740Y-54749000D01*
X143145558Y-54742482D01*
X143079373Y-54735963D01*
X142909534Y-54684443D01*
X142753009Y-54600778D01*
X142717271Y-54571448D01*
X142615814Y-54488186D01*
X142532552Y-54386729D01*
X142503222Y-54350991D01*
X142419557Y-54194466D01*
X142368037Y-54024627D01*
X142350641Y-53848000D01*
X142368037Y-53671373D01*
X142419557Y-53501534D01*
X142503222Y-53345009D01*
X142532552Y-53309271D01*
X142615814Y-53207814D01*
X142717271Y-53124552D01*
X142753009Y-53095222D01*
X142909534Y-53011557D01*
X143079373Y-52960037D01*
X143145557Y-52953519D01*
X143211740Y-52947000D01*
X143300260Y-52947000D01*
X143366443Y-52953519D01*
X143366443Y-52953519D01*
G37*
G36*
X145906443Y-52953519D02*
G01*
X145972627Y-52960037D01*
X146142466Y-53011557D01*
X146298991Y-53095222D01*
X146334729Y-53124552D01*
X146436186Y-53207814D01*
X146519448Y-53309271D01*
X146548778Y-53345009D01*
X146632443Y-53501534D01*
X146683963Y-53671373D01*
X146701359Y-53848000D01*
X146683963Y-54024627D01*
X146632443Y-54194466D01*
X146548778Y-54350991D01*
X146519448Y-54386729D01*
X146436186Y-54488186D01*
X146334729Y-54571448D01*
X146298991Y-54600778D01*
X146142466Y-54684443D01*
X145972627Y-54735963D01*
X145906442Y-54742482D01*
X145840260Y-54749000D01*
X145751740Y-54749000D01*
X145685558Y-54742482D01*
X145619373Y-54735963D01*
X145449534Y-54684443D01*
X145293009Y-54600778D01*
X145257271Y-54571448D01*
X145155814Y-54488186D01*
X145072552Y-54386729D01*
X145043222Y-54350991D01*
X144959557Y-54194466D01*
X144908037Y-54024627D01*
X144890641Y-53848000D01*
X144908037Y-53671373D01*
X144959557Y-53501534D01*
X145043222Y-53345009D01*
X145072552Y-53309271D01*
X145155814Y-53207814D01*
X145257271Y-53124552D01*
X145293009Y-53095222D01*
X145449534Y-53011557D01*
X145619373Y-52960037D01*
X145685557Y-52953519D01*
X145751740Y-52947000D01*
X145840260Y-52947000D01*
X145906443Y-52953519D01*
X145906443Y-52953519D01*
G37*
G36*
X149237000Y-54749000D02*
G01*
X147435000Y-54749000D01*
X147435000Y-52947000D01*
X149237000Y-52947000D01*
X149237000Y-54749000D01*
X149237000Y-54749000D01*
G37*
G36*
X149301000Y-49141000D02*
G01*
X147699000Y-49141000D01*
X147699000Y-48039000D01*
X149301000Y-48039000D01*
X149301000Y-49141000D01*
X149301000Y-49141000D01*
G37*
G36*
X144401000Y-49141000D02*
G01*
X142799000Y-49141000D01*
X142799000Y-48039000D01*
X144401000Y-48039000D01*
X144401000Y-49141000D01*
X144401000Y-49141000D01*
G37*
G36*
X144401000Y-45941000D02*
G01*
X142799000Y-45941000D01*
X142799000Y-44839000D01*
X144401000Y-44839000D01*
X144401000Y-45941000D01*
X144401000Y-45941000D01*
G37*
G36*
X149301000Y-45941000D02*
G01*
X147699000Y-45941000D01*
X147699000Y-44839000D01*
X149301000Y-44839000D01*
X149301000Y-45941000D01*
X149301000Y-45941000D01*
G37*
M02*
