G04 #@! TF.GenerationSoftware,KiCad,Pcbnew,(5.1.2)-2*
G04 #@! TF.CreationDate,2019-12-06T21:05:31-06:00*
G04 #@! TF.ProjectId,RGBSL,52474253-4c2e-46b6-9963-61645f706362,rev?*
G04 #@! TF.SameCoordinates,Original*
G04 #@! TF.FileFunction,Copper,L1,Top*
G04 #@! TF.FilePolarity,Positive*
%FSLAX46Y46*%
G04 Gerber Fmt 4.6, Leading zero omitted, Abs format (unit mm)*
G04 Created by KiCad (PCBNEW (5.1.2)-2) date 2019-12-06 21:05:31*
%MOMM*%
%LPD*%
G04 APERTURE LIST*
%ADD10C,1.000000*%
%ADD11C,0.100000*%
%ADD12R,1.500000X1.000000*%
%ADD13R,1.700000X1.700000*%
%ADD14O,1.700000X1.700000*%
%ADD15C,0.800000*%
%ADD16C,0.635000*%
%ADD17C,0.381000*%
%ADD18C,0.250000*%
%ADD19C,0.127000*%
G04 APERTURE END LIST*
D10*
X139285359Y-60325762D03*
D11*
G36*
X140093372Y-60725281D02*
G01*
X139227346Y-61225281D01*
X138477346Y-59926243D01*
X139343372Y-59426243D01*
X140093372Y-60725281D01*
X140093372Y-60725281D01*
G37*
D10*
X142056641Y-58725762D03*
D11*
G36*
X142864654Y-59125281D02*
G01*
X141998628Y-59625281D01*
X141248628Y-58326243D01*
X142114654Y-57826243D01*
X142864654Y-59125281D01*
X142864654Y-59125281D01*
G37*
D10*
X136835359Y-56082238D03*
D11*
G36*
X137643372Y-56481757D02*
G01*
X136777346Y-56981757D01*
X136027346Y-55682719D01*
X136893372Y-55182719D01*
X137643372Y-56481757D01*
X137643372Y-56481757D01*
G37*
D10*
X139606641Y-54482238D03*
D11*
G36*
X140414654Y-54881757D02*
G01*
X139548628Y-55381757D01*
X138798628Y-54082719D01*
X139664654Y-53582719D01*
X140414654Y-54881757D01*
X140414654Y-54881757D01*
G37*
D10*
X154756641Y-56082238D03*
D11*
G36*
X154698628Y-55182719D02*
G01*
X155564654Y-55682719D01*
X154814654Y-56981757D01*
X153948628Y-56481757D01*
X154698628Y-55182719D01*
X154698628Y-55182719D01*
G37*
D10*
X151985359Y-54482238D03*
D11*
G36*
X151927346Y-53582719D02*
G01*
X152793372Y-54082719D01*
X152043372Y-55381757D01*
X151177346Y-54881757D01*
X151927346Y-53582719D01*
X151927346Y-53582719D01*
G37*
D10*
X152306641Y-60325762D03*
D11*
G36*
X152248628Y-59426243D02*
G01*
X153114654Y-59926243D01*
X152364654Y-61225281D01*
X151498628Y-60725281D01*
X152248628Y-59426243D01*
X152248628Y-59426243D01*
G37*
D10*
X149535359Y-58725762D03*
D11*
G36*
X149477346Y-57826243D02*
G01*
X150343372Y-58326243D01*
X149593372Y-59625281D01*
X148727346Y-59125281D01*
X149477346Y-57826243D01*
X149477346Y-57826243D01*
G37*
D12*
X143600000Y-45390000D03*
X143600000Y-48590000D03*
X148500000Y-45390000D03*
X148500000Y-48590000D03*
D13*
X148336000Y-53848000D03*
D14*
X145796000Y-53848000D03*
X143256000Y-53848000D03*
D15*
X142240000Y-50800000D03*
X144780000Y-60960000D03*
X147320000Y-60960000D03*
X147320000Y-58420000D03*
X144780000Y-58420000D03*
X144780000Y-55880000D03*
X147320000Y-55880000D03*
X147320000Y-50800000D03*
X144780000Y-50800000D03*
X139700000Y-50800000D03*
X149860000Y-50800000D03*
X152400000Y-50800000D03*
X152400000Y-55880000D03*
X149860000Y-60960000D03*
X142240000Y-60960000D03*
X139700000Y-58420000D03*
X142240000Y-55880000D03*
X146050000Y-45720000D03*
X151130000Y-57150000D03*
X153670000Y-53340000D03*
X138430000Y-53340000D03*
X143510000Y-46990000D03*
X149860000Y-46990000D03*
X146685000Y-48260000D03*
X140970000Y-53340000D03*
X154305000Y-57785000D03*
X140335000Y-56515000D03*
X147320000Y-46482000D03*
X144780000Y-49530000D03*
X152654000Y-58928000D03*
X150622000Y-55372000D03*
X138176000Y-56896000D03*
D16*
X148336000Y-48754000D02*
X148500000Y-48590000D01*
D17*
X148412000Y-45390000D02*
X147320000Y-46482000D01*
X148500000Y-45390000D02*
X148412000Y-45390000D01*
D18*
X152306641Y-60325762D02*
X152702852Y-59929551D01*
D17*
X143840000Y-48590000D02*
X144780000Y-49530000D01*
X143600000Y-48590000D02*
X143840000Y-48590000D01*
X152306641Y-59275359D02*
X152654000Y-58928000D01*
X152306641Y-60325762D02*
X152306641Y-59275359D01*
X154756641Y-55116213D02*
X154756641Y-56082238D01*
X154756641Y-53449721D02*
X154756641Y-55116213D01*
X149873866Y-44810964D02*
X154756641Y-53449721D01*
X145621501Y-44499499D02*
X149562401Y-44499499D01*
X144731000Y-45390000D02*
X145621501Y-44499499D01*
X149562401Y-44499499D02*
X149873866Y-44810964D01*
X143600000Y-45390000D02*
X144731000Y-45390000D01*
X139962709Y-60325762D02*
X139285359Y-60325762D01*
X142216439Y-60325762D02*
X139962709Y-60325762D01*
X143256000Y-59286201D02*
X142216439Y-60325762D01*
X143256000Y-53848000D02*
X143256000Y-59286201D01*
X143256000Y-53848000D02*
X141449499Y-52041499D01*
X143350000Y-45390000D02*
X143600000Y-45390000D01*
X141449499Y-47290501D02*
X143350000Y-45390000D01*
X141449499Y-52041499D02*
X141449499Y-47290501D01*
X151511762Y-54482238D02*
X150622000Y-55372000D01*
X151985359Y-54482238D02*
X151511762Y-54482238D01*
X137362238Y-56082238D02*
X138176000Y-56896000D01*
X136835359Y-56082238D02*
X137362238Y-56082238D01*
D19*
G36*
X144641240Y-44761340D02*
G01*
X144615269Y-44712753D01*
X144575593Y-44664407D01*
X144527247Y-44624731D01*
X144472090Y-44595249D01*
X144412241Y-44577094D01*
X144350000Y-44570964D01*
X142850000Y-44570964D01*
X142787759Y-44577094D01*
X142727910Y-44595249D01*
X142672753Y-44624731D01*
X142624407Y-44664407D01*
X142584731Y-44712753D01*
X142555249Y-44767910D01*
X142537094Y-44827759D01*
X142530964Y-44890000D01*
X142530964Y-45490615D01*
X141107929Y-46913651D01*
X141088552Y-46929553D01*
X141072650Y-46948930D01*
X141072649Y-46948931D01*
X141025070Y-47006906D01*
X140977899Y-47095158D01*
X140954612Y-47171927D01*
X140948851Y-47190917D01*
X140939042Y-47290501D01*
X140941500Y-47315455D01*
X140941499Y-52016555D01*
X140939042Y-52041499D01*
X140941499Y-52066443D01*
X140941499Y-52066445D01*
X140948850Y-52141083D01*
X140977898Y-52236841D01*
X141025070Y-52325094D01*
X141088551Y-52402447D01*
X141107934Y-52418354D01*
X142152714Y-53463134D01*
X142105393Y-53619130D01*
X142082851Y-53848000D01*
X142105393Y-54076870D01*
X142172152Y-54296945D01*
X142280562Y-54499767D01*
X142426458Y-54677542D01*
X142604233Y-54823438D01*
X142748000Y-54900283D01*
X142748001Y-58285160D01*
X142390947Y-57666725D01*
X142354518Y-57615888D01*
X142308871Y-57573135D01*
X142255760Y-57540108D01*
X142197227Y-57518078D01*
X142135520Y-57507890D01*
X142073012Y-57509936D01*
X142012103Y-57524138D01*
X141955136Y-57549950D01*
X141089110Y-58049950D01*
X141038273Y-58086379D01*
X140995520Y-58132026D01*
X140962493Y-58185137D01*
X140940463Y-58243670D01*
X140930275Y-58305377D01*
X140932321Y-58367886D01*
X140946523Y-58428794D01*
X140972335Y-58485761D01*
X141722335Y-59784799D01*
X141745956Y-59817762D01*
X139937806Y-59817762D01*
X139619665Y-59266725D01*
X139583236Y-59215888D01*
X139537589Y-59173135D01*
X139484478Y-59140108D01*
X139425945Y-59118078D01*
X139364238Y-59107890D01*
X139301730Y-59109936D01*
X139240821Y-59124138D01*
X139183854Y-59149950D01*
X138317828Y-59649950D01*
X138266991Y-59686379D01*
X138224238Y-59732026D01*
X138191211Y-59785137D01*
X138169181Y-59843670D01*
X138158993Y-59905377D01*
X138161039Y-59967886D01*
X138175241Y-60028794D01*
X138201053Y-60085761D01*
X138951053Y-61384799D01*
X138987482Y-61435636D01*
X139033129Y-61478389D01*
X139086240Y-61511416D01*
X139144773Y-61533446D01*
X139206480Y-61543634D01*
X139268988Y-61541588D01*
X139329897Y-61527386D01*
X139386864Y-61501574D01*
X140252890Y-61001574D01*
X140303727Y-60965145D01*
X140346480Y-60919498D01*
X140379507Y-60866387D01*
X140391786Y-60833762D01*
X142191495Y-60833762D01*
X142216439Y-60836219D01*
X142241383Y-60833762D01*
X142241386Y-60833762D01*
X142316024Y-60826411D01*
X142411782Y-60797363D01*
X142500034Y-60750191D01*
X142504961Y-60746147D01*
X151180275Y-60746147D01*
X151190463Y-60807854D01*
X151212493Y-60866387D01*
X151245520Y-60919498D01*
X151288273Y-60965145D01*
X151339110Y-61001574D01*
X152205136Y-61501574D01*
X152262103Y-61527386D01*
X152323011Y-61541588D01*
X152385520Y-61543634D01*
X152447227Y-61533446D01*
X152505760Y-61511416D01*
X152558871Y-61478389D01*
X152604518Y-61435636D01*
X152640947Y-61384799D01*
X153390947Y-60085761D01*
X153416759Y-60028794D01*
X153430961Y-59967885D01*
X153433007Y-59905377D01*
X153422819Y-59843670D01*
X153400789Y-59785137D01*
X153367762Y-59732026D01*
X153325009Y-59686379D01*
X153274172Y-59649950D01*
X153054663Y-59523216D01*
X153111380Y-59485319D01*
X153211319Y-59385380D01*
X153289841Y-59267864D01*
X153343927Y-59137287D01*
X153371500Y-58998668D01*
X153371500Y-58857332D01*
X153343927Y-58718713D01*
X153289841Y-58588136D01*
X153211319Y-58470620D01*
X153111380Y-58370681D01*
X152993864Y-58292159D01*
X152863287Y-58238073D01*
X152724668Y-58210500D01*
X152583332Y-58210500D01*
X152444713Y-58238073D01*
X152314136Y-58292159D01*
X152196620Y-58370681D01*
X152096681Y-58470620D01*
X152018159Y-58588136D01*
X151964073Y-58718713D01*
X151936500Y-58857332D01*
X151936500Y-58925614D01*
X151929792Y-58933788D01*
X151929791Y-58933789D01*
X151882212Y-58991764D01*
X151865661Y-59022730D01*
X151835041Y-59080016D01*
X151810938Y-59159475D01*
X151805993Y-59175775D01*
X151796184Y-59275359D01*
X151798642Y-59300313D01*
X151798642Y-59567571D01*
X151222335Y-60565763D01*
X151196523Y-60622730D01*
X151182321Y-60683639D01*
X151180275Y-60746147D01*
X142504961Y-60746147D01*
X142577387Y-60686710D01*
X142593294Y-60667327D01*
X143520368Y-59740253D01*
X149316260Y-59740253D01*
X149345313Y-59848682D01*
X149433854Y-59901574D01*
X149490821Y-59927386D01*
X149551729Y-59941588D01*
X149614238Y-59943634D01*
X149675944Y-59933447D01*
X149734478Y-59911416D01*
X149787589Y-59878390D01*
X149833236Y-59835636D01*
X149869665Y-59784799D01*
X150044897Y-59478216D01*
X150015844Y-59369788D01*
X149651572Y-59159475D01*
X149316260Y-59740253D01*
X143520368Y-59740253D01*
X143597571Y-59663051D01*
X143616948Y-59647149D01*
X143643214Y-59615143D01*
X143680429Y-59569797D01*
X143727600Y-59481546D01*
X143727601Y-59481544D01*
X143756649Y-59385786D01*
X143764000Y-59311148D01*
X143764000Y-59311146D01*
X143766457Y-59286202D01*
X143764000Y-59261258D01*
X143764000Y-59146147D01*
X148408993Y-59146147D01*
X148419181Y-59207854D01*
X148441211Y-59266387D01*
X148474238Y-59319498D01*
X148516991Y-59365145D01*
X148567828Y-59401574D01*
X148657905Y-59451807D01*
X148766333Y-59422753D01*
X149101646Y-58841975D01*
X148737374Y-58631663D01*
X148628946Y-58660716D01*
X148451053Y-58965763D01*
X148425241Y-59022730D01*
X148411039Y-59083639D01*
X148408993Y-59146147D01*
X143764000Y-59146147D01*
X143764000Y-58609549D01*
X149969072Y-58609549D01*
X150333344Y-58819861D01*
X150441772Y-58790808D01*
X150619665Y-58485761D01*
X150645477Y-58428794D01*
X150659679Y-58367885D01*
X150661725Y-58305377D01*
X150651537Y-58243670D01*
X150629507Y-58185137D01*
X150596480Y-58132026D01*
X150553727Y-58086379D01*
X150502890Y-58049950D01*
X150412813Y-57999717D01*
X150304385Y-58028771D01*
X149969072Y-58609549D01*
X143764000Y-58609549D01*
X143764000Y-57973308D01*
X149025821Y-57973308D01*
X149054874Y-58081736D01*
X149419146Y-58292049D01*
X149754458Y-57711271D01*
X149725405Y-57602842D01*
X149636864Y-57549950D01*
X149579897Y-57524138D01*
X149518989Y-57509936D01*
X149456480Y-57507890D01*
X149394774Y-57518077D01*
X149336240Y-57540108D01*
X149283129Y-57573134D01*
X149237482Y-57615888D01*
X149201053Y-57666725D01*
X149025821Y-57973308D01*
X143764000Y-57973308D01*
X143764000Y-55301332D01*
X149904500Y-55301332D01*
X149904500Y-55442668D01*
X149932073Y-55581287D01*
X149986159Y-55711864D01*
X150064681Y-55829380D01*
X150164620Y-55929319D01*
X150282136Y-56007841D01*
X150412713Y-56061927D01*
X150551332Y-56089500D01*
X150692668Y-56089500D01*
X150831287Y-56061927D01*
X150961864Y-56007841D01*
X151079380Y-55929319D01*
X151179319Y-55829380D01*
X151257841Y-55711864D01*
X151311927Y-55581287D01*
X151339500Y-55442668D01*
X151339500Y-55372920D01*
X151357982Y-55354438D01*
X151883854Y-55658050D01*
X151940821Y-55683862D01*
X152001729Y-55698064D01*
X152064238Y-55700110D01*
X152125945Y-55689922D01*
X152184478Y-55667892D01*
X152237589Y-55634865D01*
X152283236Y-55592112D01*
X152319665Y-55541275D01*
X153069665Y-54242237D01*
X153095477Y-54185270D01*
X153109679Y-54124361D01*
X153111725Y-54061853D01*
X153101537Y-54000146D01*
X153079507Y-53941613D01*
X153046480Y-53888502D01*
X153003727Y-53842855D01*
X152952890Y-53806426D01*
X152086864Y-53306426D01*
X152029897Y-53280614D01*
X151968989Y-53266412D01*
X151906480Y-53264366D01*
X151844773Y-53274554D01*
X151786240Y-53296584D01*
X151733129Y-53329611D01*
X151687482Y-53372364D01*
X151651053Y-53423201D01*
X151309878Y-54014133D01*
X151228166Y-54057809D01*
X151173572Y-54102614D01*
X151150814Y-54121290D01*
X151134912Y-54140667D01*
X150621080Y-54654500D01*
X150551332Y-54654500D01*
X150412713Y-54682073D01*
X150282136Y-54736159D01*
X150164620Y-54814681D01*
X150064681Y-54914620D01*
X149986159Y-55032136D01*
X149932073Y-55162713D01*
X149904500Y-55301332D01*
X143764000Y-55301332D01*
X143764000Y-54900283D01*
X143907767Y-54823438D01*
X144085542Y-54677542D01*
X144231438Y-54499767D01*
X144339848Y-54296945D01*
X144406607Y-54076870D01*
X144429149Y-53848000D01*
X144622851Y-53848000D01*
X144645393Y-54076870D01*
X144712152Y-54296945D01*
X144820562Y-54499767D01*
X144966458Y-54677542D01*
X145144233Y-54823438D01*
X145347055Y-54931848D01*
X145567130Y-54998607D01*
X145738645Y-55015500D01*
X145853355Y-55015500D01*
X146024870Y-54998607D01*
X146244945Y-54931848D01*
X146447767Y-54823438D01*
X146600613Y-54698000D01*
X147166964Y-54698000D01*
X147173094Y-54760241D01*
X147191249Y-54820090D01*
X147220731Y-54875247D01*
X147260407Y-54923593D01*
X147308753Y-54963269D01*
X147363910Y-54992751D01*
X147423759Y-55010906D01*
X147486000Y-55017036D01*
X147939125Y-55015500D01*
X148018500Y-54936125D01*
X148018500Y-54165500D01*
X148653500Y-54165500D01*
X148653500Y-54936125D01*
X148732875Y-55015500D01*
X149186000Y-55017036D01*
X149248241Y-55010906D01*
X149308090Y-54992751D01*
X149363247Y-54963269D01*
X149411593Y-54923593D01*
X149451269Y-54875247D01*
X149480751Y-54820090D01*
X149498906Y-54760241D01*
X149505036Y-54698000D01*
X149503500Y-54244875D01*
X149424125Y-54165500D01*
X148653500Y-54165500D01*
X148018500Y-54165500D01*
X147247875Y-54165500D01*
X147168500Y-54244875D01*
X147166964Y-54698000D01*
X146600613Y-54698000D01*
X146625542Y-54677542D01*
X146771438Y-54499767D01*
X146879848Y-54296945D01*
X146946607Y-54076870D01*
X146969149Y-53848000D01*
X146946607Y-53619130D01*
X146879848Y-53399055D01*
X146771438Y-53196233D01*
X146625542Y-53018458D01*
X146600614Y-52998000D01*
X147166964Y-52998000D01*
X147168500Y-53451125D01*
X147247875Y-53530500D01*
X148018500Y-53530500D01*
X148018500Y-52759875D01*
X148653500Y-52759875D01*
X148653500Y-53530500D01*
X149424125Y-53530500D01*
X149503500Y-53451125D01*
X149505036Y-52998000D01*
X149498906Y-52935759D01*
X149480751Y-52875910D01*
X149451269Y-52820753D01*
X149411593Y-52772407D01*
X149363247Y-52732731D01*
X149308090Y-52703249D01*
X149248241Y-52685094D01*
X149186000Y-52678964D01*
X148732875Y-52680500D01*
X148653500Y-52759875D01*
X148018500Y-52759875D01*
X147939125Y-52680500D01*
X147486000Y-52678964D01*
X147423759Y-52685094D01*
X147363910Y-52703249D01*
X147308753Y-52732731D01*
X147260407Y-52772407D01*
X147220731Y-52820753D01*
X147191249Y-52875910D01*
X147173094Y-52935759D01*
X147166964Y-52998000D01*
X146600614Y-52998000D01*
X146447767Y-52872562D01*
X146244945Y-52764152D01*
X146024870Y-52697393D01*
X145853355Y-52680500D01*
X145738645Y-52680500D01*
X145567130Y-52697393D01*
X145347055Y-52764152D01*
X145144233Y-52872562D01*
X144966458Y-53018458D01*
X144820562Y-53196233D01*
X144712152Y-53399055D01*
X144645393Y-53619130D01*
X144622851Y-53848000D01*
X144429149Y-53848000D01*
X144406607Y-53619130D01*
X144339848Y-53399055D01*
X144231438Y-53196233D01*
X144085542Y-53018458D01*
X143907767Y-52872562D01*
X143704945Y-52764152D01*
X143484870Y-52697393D01*
X143313355Y-52680500D01*
X143198645Y-52680500D01*
X143027130Y-52697393D01*
X142871134Y-52744714D01*
X141957499Y-51831079D01*
X141957499Y-48090000D01*
X142530964Y-48090000D01*
X142530964Y-49090000D01*
X142537094Y-49152241D01*
X142555249Y-49212090D01*
X142584731Y-49267247D01*
X142624407Y-49315593D01*
X142672753Y-49355269D01*
X142727910Y-49384751D01*
X142787759Y-49402906D01*
X142850000Y-49409036D01*
X143940616Y-49409036D01*
X144062500Y-49530920D01*
X144062500Y-49600668D01*
X144090073Y-49739287D01*
X144144159Y-49869864D01*
X144222681Y-49987380D01*
X144322620Y-50087319D01*
X144440136Y-50165841D01*
X144570713Y-50219927D01*
X144709332Y-50247500D01*
X144850668Y-50247500D01*
X144989287Y-50219927D01*
X145119864Y-50165841D01*
X145237380Y-50087319D01*
X145337319Y-49987380D01*
X145415841Y-49869864D01*
X145469927Y-49739287D01*
X145497500Y-49600668D01*
X145497500Y-49459332D01*
X145469927Y-49320713D01*
X145415841Y-49190136D01*
X145348932Y-49090000D01*
X147430964Y-49090000D01*
X147437094Y-49152241D01*
X147455249Y-49212090D01*
X147484731Y-49267247D01*
X147524407Y-49315593D01*
X147572753Y-49355269D01*
X147627910Y-49384751D01*
X147687759Y-49402906D01*
X147750000Y-49409036D01*
X148103125Y-49407500D01*
X148182500Y-49328125D01*
X148182500Y-48907500D01*
X148817500Y-48907500D01*
X148817500Y-49328125D01*
X148896875Y-49407500D01*
X149250000Y-49409036D01*
X149312241Y-49402906D01*
X149372090Y-49384751D01*
X149427247Y-49355269D01*
X149475593Y-49315593D01*
X149515269Y-49267247D01*
X149544751Y-49212090D01*
X149562906Y-49152241D01*
X149569036Y-49090000D01*
X149567500Y-48986875D01*
X149488125Y-48907500D01*
X148817500Y-48907500D01*
X148182500Y-48907500D01*
X147511875Y-48907500D01*
X147432500Y-48986875D01*
X147430964Y-49090000D01*
X145348932Y-49090000D01*
X145337319Y-49072620D01*
X145237380Y-48972681D01*
X145119864Y-48894159D01*
X144989287Y-48840073D01*
X144850668Y-48812500D01*
X144780920Y-48812500D01*
X144669036Y-48700616D01*
X144669036Y-48090000D01*
X147430964Y-48090000D01*
X147432500Y-48193125D01*
X147511875Y-48272500D01*
X148182500Y-48272500D01*
X148182500Y-47851875D01*
X148817500Y-47851875D01*
X148817500Y-48272500D01*
X149488125Y-48272500D01*
X149567500Y-48193125D01*
X149569036Y-48090000D01*
X149562906Y-48027759D01*
X149544751Y-47967910D01*
X149515269Y-47912753D01*
X149475593Y-47864407D01*
X149427247Y-47824731D01*
X149372090Y-47795249D01*
X149312241Y-47777094D01*
X149250000Y-47770964D01*
X148896875Y-47772500D01*
X148817500Y-47851875D01*
X148182500Y-47851875D01*
X148103125Y-47772500D01*
X147750000Y-47770964D01*
X147687759Y-47777094D01*
X147627910Y-47795249D01*
X147572753Y-47824731D01*
X147524407Y-47864407D01*
X147484731Y-47912753D01*
X147455249Y-47967910D01*
X147437094Y-48027759D01*
X147430964Y-48090000D01*
X144669036Y-48090000D01*
X144662906Y-48027759D01*
X144644751Y-47967910D01*
X144615269Y-47912753D01*
X144575593Y-47864407D01*
X144527247Y-47824731D01*
X144472090Y-47795249D01*
X144412241Y-47777094D01*
X144350000Y-47770964D01*
X142850000Y-47770964D01*
X142787759Y-47777094D01*
X142727910Y-47795249D01*
X142672753Y-47824731D01*
X142624407Y-47864407D01*
X142584731Y-47912753D01*
X142555249Y-47967910D01*
X142537094Y-48027759D01*
X142530964Y-48090000D01*
X141957499Y-48090000D01*
X141957499Y-47500921D01*
X143249385Y-46209036D01*
X144350000Y-46209036D01*
X144412241Y-46202906D01*
X144472090Y-46184751D01*
X144527247Y-46155269D01*
X144575593Y-46115593D01*
X144615269Y-46067247D01*
X144644751Y-46012090D01*
X144662906Y-45952241D01*
X144668248Y-45898000D01*
X144706056Y-45898000D01*
X144731000Y-45900457D01*
X144755944Y-45898000D01*
X144755947Y-45898000D01*
X144830585Y-45890649D01*
X144926343Y-45861601D01*
X145014595Y-45814429D01*
X145091948Y-45750948D01*
X145107855Y-45731565D01*
X145831921Y-45007499D01*
X147430964Y-45007499D01*
X147430964Y-45652616D01*
X147319080Y-45764500D01*
X147249332Y-45764500D01*
X147110713Y-45792073D01*
X146980136Y-45846159D01*
X146862620Y-45924681D01*
X146762681Y-46024620D01*
X146684159Y-46142136D01*
X146630073Y-46272713D01*
X146602500Y-46411332D01*
X146602500Y-46552668D01*
X146630073Y-46691287D01*
X146684159Y-46821864D01*
X146762681Y-46939380D01*
X146862620Y-47039319D01*
X146980136Y-47117841D01*
X147110713Y-47171927D01*
X147249332Y-47199500D01*
X147390668Y-47199500D01*
X147529287Y-47171927D01*
X147659864Y-47117841D01*
X147777380Y-47039319D01*
X147877319Y-46939380D01*
X147955841Y-46821864D01*
X148009927Y-46691287D01*
X148037500Y-46552668D01*
X148037500Y-46482920D01*
X148311385Y-46209036D01*
X149250000Y-46209036D01*
X149312241Y-46202906D01*
X149372090Y-46184751D01*
X149427247Y-46155269D01*
X149475593Y-46115593D01*
X149515269Y-46067247D01*
X149544751Y-46012090D01*
X149562906Y-45952241D01*
X149569036Y-45890000D01*
X149569036Y-45304049D01*
X154248641Y-53583353D01*
X154248642Y-55091257D01*
X154248641Y-55091267D01*
X154248641Y-55324047D01*
X153672335Y-56322239D01*
X153646523Y-56379206D01*
X153632321Y-56440115D01*
X153630275Y-56502623D01*
X153640463Y-56564330D01*
X153662493Y-56622863D01*
X153695520Y-56675974D01*
X153738273Y-56721621D01*
X153789110Y-56758050D01*
X154655136Y-57258050D01*
X154712103Y-57283862D01*
X154773011Y-57298064D01*
X154835520Y-57300110D01*
X154897227Y-57289922D01*
X154955760Y-57267892D01*
X155008871Y-57234865D01*
X155054518Y-57192112D01*
X155090947Y-57141275D01*
X155840947Y-55842237D01*
X155866759Y-55785270D01*
X155880961Y-55724361D01*
X155883007Y-55661853D01*
X155872819Y-55600146D01*
X155850789Y-55541613D01*
X155817762Y-55488502D01*
X155775009Y-55442855D01*
X155724172Y-55406426D01*
X155264641Y-55141116D01*
X155264641Y-54200114D01*
X156071017Y-55626779D01*
X152707253Y-61633500D01*
X138958470Y-61633500D01*
X137092528Y-58568024D01*
X135525581Y-55881830D01*
X135656631Y-55661853D01*
X135708993Y-55661853D01*
X135711039Y-55724362D01*
X135725241Y-55785270D01*
X135751053Y-55842237D01*
X136501053Y-57141275D01*
X136537482Y-57192112D01*
X136583129Y-57234865D01*
X136636240Y-57267892D01*
X136694773Y-57289922D01*
X136756480Y-57300110D01*
X136818988Y-57298064D01*
X136879897Y-57283862D01*
X136936864Y-57258050D01*
X137458500Y-56956884D01*
X137458500Y-56966668D01*
X137486073Y-57105287D01*
X137540159Y-57235864D01*
X137618681Y-57353380D01*
X137718620Y-57453319D01*
X137836136Y-57531841D01*
X137966713Y-57585927D01*
X138105332Y-57613500D01*
X138246668Y-57613500D01*
X138385287Y-57585927D01*
X138515864Y-57531841D01*
X138633380Y-57453319D01*
X138733319Y-57353380D01*
X138811841Y-57235864D01*
X138865927Y-57105287D01*
X138893500Y-56966668D01*
X138893500Y-56825332D01*
X138865927Y-56686713D01*
X138811841Y-56556136D01*
X138733319Y-56438620D01*
X138633380Y-56338681D01*
X138515864Y-56260159D01*
X138385287Y-56206073D01*
X138246668Y-56178500D01*
X138176921Y-56178500D01*
X137739093Y-55740673D01*
X137723186Y-55721290D01*
X137645833Y-55657809D01*
X137557581Y-55610637D01*
X137498469Y-55592705D01*
X137291770Y-55234692D01*
X139097103Y-55234692D01*
X139272335Y-55541275D01*
X139308764Y-55592112D01*
X139354411Y-55634866D01*
X139407522Y-55667892D01*
X139466056Y-55689923D01*
X139527762Y-55700110D01*
X139590271Y-55698064D01*
X139651179Y-55683862D01*
X139708146Y-55658050D01*
X139796687Y-55605158D01*
X139825740Y-55496729D01*
X139490428Y-54915951D01*
X139126156Y-55126264D01*
X139097103Y-55234692D01*
X137291770Y-55234692D01*
X137169665Y-55023201D01*
X137133236Y-54972364D01*
X137087589Y-54929611D01*
X137034478Y-54896584D01*
X136975945Y-54874554D01*
X136914238Y-54864366D01*
X136851730Y-54866412D01*
X136790821Y-54880614D01*
X136733854Y-54906426D01*
X135867828Y-55406426D01*
X135816991Y-55442855D01*
X135774238Y-55488502D01*
X135741211Y-55541613D01*
X135719181Y-55600146D01*
X135708993Y-55661853D01*
X135656631Y-55661853D01*
X136290146Y-54598451D01*
X140040354Y-54598451D01*
X140375667Y-55179229D01*
X140484095Y-55208283D01*
X140574172Y-55158050D01*
X140625009Y-55121621D01*
X140667762Y-55075974D01*
X140700789Y-55022863D01*
X140722819Y-54964330D01*
X140733007Y-54902623D01*
X140730961Y-54840115D01*
X140716759Y-54779206D01*
X140690947Y-54722239D01*
X140513054Y-54417192D01*
X140404626Y-54388139D01*
X140040354Y-54598451D01*
X136290146Y-54598451D01*
X136609822Y-54061853D01*
X138480275Y-54061853D01*
X138482321Y-54124361D01*
X138496523Y-54185270D01*
X138522335Y-54242237D01*
X138700228Y-54547284D01*
X138808656Y-54576337D01*
X139172928Y-54366025D01*
X138837615Y-53785247D01*
X138729187Y-53756193D01*
X138639110Y-53806426D01*
X138588273Y-53842855D01*
X138545520Y-53888502D01*
X138512493Y-53941613D01*
X138490463Y-54000146D01*
X138480275Y-54061853D01*
X136609822Y-54061853D01*
X136963757Y-53467747D01*
X139387542Y-53467747D01*
X139722854Y-54048525D01*
X140087126Y-53838212D01*
X140116179Y-53729784D01*
X139940947Y-53423201D01*
X139904518Y-53372364D01*
X139858871Y-53329610D01*
X139805760Y-53296584D01*
X139747226Y-53274553D01*
X139685520Y-53264366D01*
X139623011Y-53266412D01*
X139562103Y-53280614D01*
X139505136Y-53306426D01*
X139416595Y-53359318D01*
X139387542Y-53467747D01*
X136963757Y-53467747D01*
X142434630Y-44284500D01*
X145118080Y-44284500D01*
X144641240Y-44761340D01*
X144641240Y-44761340D01*
G37*
X144641240Y-44761340D02*
X144615269Y-44712753D01*
X144575593Y-44664407D01*
X144527247Y-44624731D01*
X144472090Y-44595249D01*
X144412241Y-44577094D01*
X144350000Y-44570964D01*
X142850000Y-44570964D01*
X142787759Y-44577094D01*
X142727910Y-44595249D01*
X142672753Y-44624731D01*
X142624407Y-44664407D01*
X142584731Y-44712753D01*
X142555249Y-44767910D01*
X142537094Y-44827759D01*
X142530964Y-44890000D01*
X142530964Y-45490615D01*
X141107929Y-46913651D01*
X141088552Y-46929553D01*
X141072650Y-46948930D01*
X141072649Y-46948931D01*
X141025070Y-47006906D01*
X140977899Y-47095158D01*
X140954612Y-47171927D01*
X140948851Y-47190917D01*
X140939042Y-47290501D01*
X140941500Y-47315455D01*
X140941499Y-52016555D01*
X140939042Y-52041499D01*
X140941499Y-52066443D01*
X140941499Y-52066445D01*
X140948850Y-52141083D01*
X140977898Y-52236841D01*
X141025070Y-52325094D01*
X141088551Y-52402447D01*
X141107934Y-52418354D01*
X142152714Y-53463134D01*
X142105393Y-53619130D01*
X142082851Y-53848000D01*
X142105393Y-54076870D01*
X142172152Y-54296945D01*
X142280562Y-54499767D01*
X142426458Y-54677542D01*
X142604233Y-54823438D01*
X142748000Y-54900283D01*
X142748001Y-58285160D01*
X142390947Y-57666725D01*
X142354518Y-57615888D01*
X142308871Y-57573135D01*
X142255760Y-57540108D01*
X142197227Y-57518078D01*
X142135520Y-57507890D01*
X142073012Y-57509936D01*
X142012103Y-57524138D01*
X141955136Y-57549950D01*
X141089110Y-58049950D01*
X141038273Y-58086379D01*
X140995520Y-58132026D01*
X140962493Y-58185137D01*
X140940463Y-58243670D01*
X140930275Y-58305377D01*
X140932321Y-58367886D01*
X140946523Y-58428794D01*
X140972335Y-58485761D01*
X141722335Y-59784799D01*
X141745956Y-59817762D01*
X139937806Y-59817762D01*
X139619665Y-59266725D01*
X139583236Y-59215888D01*
X139537589Y-59173135D01*
X139484478Y-59140108D01*
X139425945Y-59118078D01*
X139364238Y-59107890D01*
X139301730Y-59109936D01*
X139240821Y-59124138D01*
X139183854Y-59149950D01*
X138317828Y-59649950D01*
X138266991Y-59686379D01*
X138224238Y-59732026D01*
X138191211Y-59785137D01*
X138169181Y-59843670D01*
X138158993Y-59905377D01*
X138161039Y-59967886D01*
X138175241Y-60028794D01*
X138201053Y-60085761D01*
X138951053Y-61384799D01*
X138987482Y-61435636D01*
X139033129Y-61478389D01*
X139086240Y-61511416D01*
X139144773Y-61533446D01*
X139206480Y-61543634D01*
X139268988Y-61541588D01*
X139329897Y-61527386D01*
X139386864Y-61501574D01*
X140252890Y-61001574D01*
X140303727Y-60965145D01*
X140346480Y-60919498D01*
X140379507Y-60866387D01*
X140391786Y-60833762D01*
X142191495Y-60833762D01*
X142216439Y-60836219D01*
X142241383Y-60833762D01*
X142241386Y-60833762D01*
X142316024Y-60826411D01*
X142411782Y-60797363D01*
X142500034Y-60750191D01*
X142504961Y-60746147D01*
X151180275Y-60746147D01*
X151190463Y-60807854D01*
X151212493Y-60866387D01*
X151245520Y-60919498D01*
X151288273Y-60965145D01*
X151339110Y-61001574D01*
X152205136Y-61501574D01*
X152262103Y-61527386D01*
X152323011Y-61541588D01*
X152385520Y-61543634D01*
X152447227Y-61533446D01*
X152505760Y-61511416D01*
X152558871Y-61478389D01*
X152604518Y-61435636D01*
X152640947Y-61384799D01*
X153390947Y-60085761D01*
X153416759Y-60028794D01*
X153430961Y-59967885D01*
X153433007Y-59905377D01*
X153422819Y-59843670D01*
X153400789Y-59785137D01*
X153367762Y-59732026D01*
X153325009Y-59686379D01*
X153274172Y-59649950D01*
X153054663Y-59523216D01*
X153111380Y-59485319D01*
X153211319Y-59385380D01*
X153289841Y-59267864D01*
X153343927Y-59137287D01*
X153371500Y-58998668D01*
X153371500Y-58857332D01*
X153343927Y-58718713D01*
X153289841Y-58588136D01*
X153211319Y-58470620D01*
X153111380Y-58370681D01*
X152993864Y-58292159D01*
X152863287Y-58238073D01*
X152724668Y-58210500D01*
X152583332Y-58210500D01*
X152444713Y-58238073D01*
X152314136Y-58292159D01*
X152196620Y-58370681D01*
X152096681Y-58470620D01*
X152018159Y-58588136D01*
X151964073Y-58718713D01*
X151936500Y-58857332D01*
X151936500Y-58925614D01*
X151929792Y-58933788D01*
X151929791Y-58933789D01*
X151882212Y-58991764D01*
X151865661Y-59022730D01*
X151835041Y-59080016D01*
X151810938Y-59159475D01*
X151805993Y-59175775D01*
X151796184Y-59275359D01*
X151798642Y-59300313D01*
X151798642Y-59567571D01*
X151222335Y-60565763D01*
X151196523Y-60622730D01*
X151182321Y-60683639D01*
X151180275Y-60746147D01*
X142504961Y-60746147D01*
X142577387Y-60686710D01*
X142593294Y-60667327D01*
X143520368Y-59740253D01*
X149316260Y-59740253D01*
X149345313Y-59848682D01*
X149433854Y-59901574D01*
X149490821Y-59927386D01*
X149551729Y-59941588D01*
X149614238Y-59943634D01*
X149675944Y-59933447D01*
X149734478Y-59911416D01*
X149787589Y-59878390D01*
X149833236Y-59835636D01*
X149869665Y-59784799D01*
X150044897Y-59478216D01*
X150015844Y-59369788D01*
X149651572Y-59159475D01*
X149316260Y-59740253D01*
X143520368Y-59740253D01*
X143597571Y-59663051D01*
X143616948Y-59647149D01*
X143643214Y-59615143D01*
X143680429Y-59569797D01*
X143727600Y-59481546D01*
X143727601Y-59481544D01*
X143756649Y-59385786D01*
X143764000Y-59311148D01*
X143764000Y-59311146D01*
X143766457Y-59286202D01*
X143764000Y-59261258D01*
X143764000Y-59146147D01*
X148408993Y-59146147D01*
X148419181Y-59207854D01*
X148441211Y-59266387D01*
X148474238Y-59319498D01*
X148516991Y-59365145D01*
X148567828Y-59401574D01*
X148657905Y-59451807D01*
X148766333Y-59422753D01*
X149101646Y-58841975D01*
X148737374Y-58631663D01*
X148628946Y-58660716D01*
X148451053Y-58965763D01*
X148425241Y-59022730D01*
X148411039Y-59083639D01*
X148408993Y-59146147D01*
X143764000Y-59146147D01*
X143764000Y-58609549D01*
X149969072Y-58609549D01*
X150333344Y-58819861D01*
X150441772Y-58790808D01*
X150619665Y-58485761D01*
X150645477Y-58428794D01*
X150659679Y-58367885D01*
X150661725Y-58305377D01*
X150651537Y-58243670D01*
X150629507Y-58185137D01*
X150596480Y-58132026D01*
X150553727Y-58086379D01*
X150502890Y-58049950D01*
X150412813Y-57999717D01*
X150304385Y-58028771D01*
X149969072Y-58609549D01*
X143764000Y-58609549D01*
X143764000Y-57973308D01*
X149025821Y-57973308D01*
X149054874Y-58081736D01*
X149419146Y-58292049D01*
X149754458Y-57711271D01*
X149725405Y-57602842D01*
X149636864Y-57549950D01*
X149579897Y-57524138D01*
X149518989Y-57509936D01*
X149456480Y-57507890D01*
X149394774Y-57518077D01*
X149336240Y-57540108D01*
X149283129Y-57573134D01*
X149237482Y-57615888D01*
X149201053Y-57666725D01*
X149025821Y-57973308D01*
X143764000Y-57973308D01*
X143764000Y-55301332D01*
X149904500Y-55301332D01*
X149904500Y-55442668D01*
X149932073Y-55581287D01*
X149986159Y-55711864D01*
X150064681Y-55829380D01*
X150164620Y-55929319D01*
X150282136Y-56007841D01*
X150412713Y-56061927D01*
X150551332Y-56089500D01*
X150692668Y-56089500D01*
X150831287Y-56061927D01*
X150961864Y-56007841D01*
X151079380Y-55929319D01*
X151179319Y-55829380D01*
X151257841Y-55711864D01*
X151311927Y-55581287D01*
X151339500Y-55442668D01*
X151339500Y-55372920D01*
X151357982Y-55354438D01*
X151883854Y-55658050D01*
X151940821Y-55683862D01*
X152001729Y-55698064D01*
X152064238Y-55700110D01*
X152125945Y-55689922D01*
X152184478Y-55667892D01*
X152237589Y-55634865D01*
X152283236Y-55592112D01*
X152319665Y-55541275D01*
X153069665Y-54242237D01*
X153095477Y-54185270D01*
X153109679Y-54124361D01*
X153111725Y-54061853D01*
X153101537Y-54000146D01*
X153079507Y-53941613D01*
X153046480Y-53888502D01*
X153003727Y-53842855D01*
X152952890Y-53806426D01*
X152086864Y-53306426D01*
X152029897Y-53280614D01*
X151968989Y-53266412D01*
X151906480Y-53264366D01*
X151844773Y-53274554D01*
X151786240Y-53296584D01*
X151733129Y-53329611D01*
X151687482Y-53372364D01*
X151651053Y-53423201D01*
X151309878Y-54014133D01*
X151228166Y-54057809D01*
X151173572Y-54102614D01*
X151150814Y-54121290D01*
X151134912Y-54140667D01*
X150621080Y-54654500D01*
X150551332Y-54654500D01*
X150412713Y-54682073D01*
X150282136Y-54736159D01*
X150164620Y-54814681D01*
X150064681Y-54914620D01*
X149986159Y-55032136D01*
X149932073Y-55162713D01*
X149904500Y-55301332D01*
X143764000Y-55301332D01*
X143764000Y-54900283D01*
X143907767Y-54823438D01*
X144085542Y-54677542D01*
X144231438Y-54499767D01*
X144339848Y-54296945D01*
X144406607Y-54076870D01*
X144429149Y-53848000D01*
X144622851Y-53848000D01*
X144645393Y-54076870D01*
X144712152Y-54296945D01*
X144820562Y-54499767D01*
X144966458Y-54677542D01*
X145144233Y-54823438D01*
X145347055Y-54931848D01*
X145567130Y-54998607D01*
X145738645Y-55015500D01*
X145853355Y-55015500D01*
X146024870Y-54998607D01*
X146244945Y-54931848D01*
X146447767Y-54823438D01*
X146600613Y-54698000D01*
X147166964Y-54698000D01*
X147173094Y-54760241D01*
X147191249Y-54820090D01*
X147220731Y-54875247D01*
X147260407Y-54923593D01*
X147308753Y-54963269D01*
X147363910Y-54992751D01*
X147423759Y-55010906D01*
X147486000Y-55017036D01*
X147939125Y-55015500D01*
X148018500Y-54936125D01*
X148018500Y-54165500D01*
X148653500Y-54165500D01*
X148653500Y-54936125D01*
X148732875Y-55015500D01*
X149186000Y-55017036D01*
X149248241Y-55010906D01*
X149308090Y-54992751D01*
X149363247Y-54963269D01*
X149411593Y-54923593D01*
X149451269Y-54875247D01*
X149480751Y-54820090D01*
X149498906Y-54760241D01*
X149505036Y-54698000D01*
X149503500Y-54244875D01*
X149424125Y-54165500D01*
X148653500Y-54165500D01*
X148018500Y-54165500D01*
X147247875Y-54165500D01*
X147168500Y-54244875D01*
X147166964Y-54698000D01*
X146600613Y-54698000D01*
X146625542Y-54677542D01*
X146771438Y-54499767D01*
X146879848Y-54296945D01*
X146946607Y-54076870D01*
X146969149Y-53848000D01*
X146946607Y-53619130D01*
X146879848Y-53399055D01*
X146771438Y-53196233D01*
X146625542Y-53018458D01*
X146600614Y-52998000D01*
X147166964Y-52998000D01*
X147168500Y-53451125D01*
X147247875Y-53530500D01*
X148018500Y-53530500D01*
X148018500Y-52759875D01*
X148653500Y-52759875D01*
X148653500Y-53530500D01*
X149424125Y-53530500D01*
X149503500Y-53451125D01*
X149505036Y-52998000D01*
X149498906Y-52935759D01*
X149480751Y-52875910D01*
X149451269Y-52820753D01*
X149411593Y-52772407D01*
X149363247Y-52732731D01*
X149308090Y-52703249D01*
X149248241Y-52685094D01*
X149186000Y-52678964D01*
X148732875Y-52680500D01*
X148653500Y-52759875D01*
X148018500Y-52759875D01*
X147939125Y-52680500D01*
X147486000Y-52678964D01*
X147423759Y-52685094D01*
X147363910Y-52703249D01*
X147308753Y-52732731D01*
X147260407Y-52772407D01*
X147220731Y-52820753D01*
X147191249Y-52875910D01*
X147173094Y-52935759D01*
X147166964Y-52998000D01*
X146600614Y-52998000D01*
X146447767Y-52872562D01*
X146244945Y-52764152D01*
X146024870Y-52697393D01*
X145853355Y-52680500D01*
X145738645Y-52680500D01*
X145567130Y-52697393D01*
X145347055Y-52764152D01*
X145144233Y-52872562D01*
X144966458Y-53018458D01*
X144820562Y-53196233D01*
X144712152Y-53399055D01*
X144645393Y-53619130D01*
X144622851Y-53848000D01*
X144429149Y-53848000D01*
X144406607Y-53619130D01*
X144339848Y-53399055D01*
X144231438Y-53196233D01*
X144085542Y-53018458D01*
X143907767Y-52872562D01*
X143704945Y-52764152D01*
X143484870Y-52697393D01*
X143313355Y-52680500D01*
X143198645Y-52680500D01*
X143027130Y-52697393D01*
X142871134Y-52744714D01*
X141957499Y-51831079D01*
X141957499Y-48090000D01*
X142530964Y-48090000D01*
X142530964Y-49090000D01*
X142537094Y-49152241D01*
X142555249Y-49212090D01*
X142584731Y-49267247D01*
X142624407Y-49315593D01*
X142672753Y-49355269D01*
X142727910Y-49384751D01*
X142787759Y-49402906D01*
X142850000Y-49409036D01*
X143940616Y-49409036D01*
X144062500Y-49530920D01*
X144062500Y-49600668D01*
X144090073Y-49739287D01*
X144144159Y-49869864D01*
X144222681Y-49987380D01*
X144322620Y-50087319D01*
X144440136Y-50165841D01*
X144570713Y-50219927D01*
X144709332Y-50247500D01*
X144850668Y-50247500D01*
X144989287Y-50219927D01*
X145119864Y-50165841D01*
X145237380Y-50087319D01*
X145337319Y-49987380D01*
X145415841Y-49869864D01*
X145469927Y-49739287D01*
X145497500Y-49600668D01*
X145497500Y-49459332D01*
X145469927Y-49320713D01*
X145415841Y-49190136D01*
X145348932Y-49090000D01*
X147430964Y-49090000D01*
X147437094Y-49152241D01*
X147455249Y-49212090D01*
X147484731Y-49267247D01*
X147524407Y-49315593D01*
X147572753Y-49355269D01*
X147627910Y-49384751D01*
X147687759Y-49402906D01*
X147750000Y-49409036D01*
X148103125Y-49407500D01*
X148182500Y-49328125D01*
X148182500Y-48907500D01*
X148817500Y-48907500D01*
X148817500Y-49328125D01*
X148896875Y-49407500D01*
X149250000Y-49409036D01*
X149312241Y-49402906D01*
X149372090Y-49384751D01*
X149427247Y-49355269D01*
X149475593Y-49315593D01*
X149515269Y-49267247D01*
X149544751Y-49212090D01*
X149562906Y-49152241D01*
X149569036Y-49090000D01*
X149567500Y-48986875D01*
X149488125Y-48907500D01*
X148817500Y-48907500D01*
X148182500Y-48907500D01*
X147511875Y-48907500D01*
X147432500Y-48986875D01*
X147430964Y-49090000D01*
X145348932Y-49090000D01*
X145337319Y-49072620D01*
X145237380Y-48972681D01*
X145119864Y-48894159D01*
X144989287Y-48840073D01*
X144850668Y-48812500D01*
X144780920Y-48812500D01*
X144669036Y-48700616D01*
X144669036Y-48090000D01*
X147430964Y-48090000D01*
X147432500Y-48193125D01*
X147511875Y-48272500D01*
X148182500Y-48272500D01*
X148182500Y-47851875D01*
X148817500Y-47851875D01*
X148817500Y-48272500D01*
X149488125Y-48272500D01*
X149567500Y-48193125D01*
X149569036Y-48090000D01*
X149562906Y-48027759D01*
X149544751Y-47967910D01*
X149515269Y-47912753D01*
X149475593Y-47864407D01*
X149427247Y-47824731D01*
X149372090Y-47795249D01*
X149312241Y-47777094D01*
X149250000Y-47770964D01*
X148896875Y-47772500D01*
X148817500Y-47851875D01*
X148182500Y-47851875D01*
X148103125Y-47772500D01*
X147750000Y-47770964D01*
X147687759Y-47777094D01*
X147627910Y-47795249D01*
X147572753Y-47824731D01*
X147524407Y-47864407D01*
X147484731Y-47912753D01*
X147455249Y-47967910D01*
X147437094Y-48027759D01*
X147430964Y-48090000D01*
X144669036Y-48090000D01*
X144662906Y-48027759D01*
X144644751Y-47967910D01*
X144615269Y-47912753D01*
X144575593Y-47864407D01*
X144527247Y-47824731D01*
X144472090Y-47795249D01*
X144412241Y-47777094D01*
X144350000Y-47770964D01*
X142850000Y-47770964D01*
X142787759Y-47777094D01*
X142727910Y-47795249D01*
X142672753Y-47824731D01*
X142624407Y-47864407D01*
X142584731Y-47912753D01*
X142555249Y-47967910D01*
X142537094Y-48027759D01*
X142530964Y-48090000D01*
X141957499Y-48090000D01*
X141957499Y-47500921D01*
X143249385Y-46209036D01*
X144350000Y-46209036D01*
X144412241Y-46202906D01*
X144472090Y-46184751D01*
X144527247Y-46155269D01*
X144575593Y-46115593D01*
X144615269Y-46067247D01*
X144644751Y-46012090D01*
X144662906Y-45952241D01*
X144668248Y-45898000D01*
X144706056Y-45898000D01*
X144731000Y-45900457D01*
X144755944Y-45898000D01*
X144755947Y-45898000D01*
X144830585Y-45890649D01*
X144926343Y-45861601D01*
X145014595Y-45814429D01*
X145091948Y-45750948D01*
X145107855Y-45731565D01*
X145831921Y-45007499D01*
X147430964Y-45007499D01*
X147430964Y-45652616D01*
X147319080Y-45764500D01*
X147249332Y-45764500D01*
X147110713Y-45792073D01*
X146980136Y-45846159D01*
X146862620Y-45924681D01*
X146762681Y-46024620D01*
X146684159Y-46142136D01*
X146630073Y-46272713D01*
X146602500Y-46411332D01*
X146602500Y-46552668D01*
X146630073Y-46691287D01*
X146684159Y-46821864D01*
X146762681Y-46939380D01*
X146862620Y-47039319D01*
X146980136Y-47117841D01*
X147110713Y-47171927D01*
X147249332Y-47199500D01*
X147390668Y-47199500D01*
X147529287Y-47171927D01*
X147659864Y-47117841D01*
X147777380Y-47039319D01*
X147877319Y-46939380D01*
X147955841Y-46821864D01*
X148009927Y-46691287D01*
X148037500Y-46552668D01*
X148037500Y-46482920D01*
X148311385Y-46209036D01*
X149250000Y-46209036D01*
X149312241Y-46202906D01*
X149372090Y-46184751D01*
X149427247Y-46155269D01*
X149475593Y-46115593D01*
X149515269Y-46067247D01*
X149544751Y-46012090D01*
X149562906Y-45952241D01*
X149569036Y-45890000D01*
X149569036Y-45304049D01*
X154248641Y-53583353D01*
X154248642Y-55091257D01*
X154248641Y-55091267D01*
X154248641Y-55324047D01*
X153672335Y-56322239D01*
X153646523Y-56379206D01*
X153632321Y-56440115D01*
X153630275Y-56502623D01*
X153640463Y-56564330D01*
X153662493Y-56622863D01*
X153695520Y-56675974D01*
X153738273Y-56721621D01*
X153789110Y-56758050D01*
X154655136Y-57258050D01*
X154712103Y-57283862D01*
X154773011Y-57298064D01*
X154835520Y-57300110D01*
X154897227Y-57289922D01*
X154955760Y-57267892D01*
X155008871Y-57234865D01*
X155054518Y-57192112D01*
X155090947Y-57141275D01*
X155840947Y-55842237D01*
X155866759Y-55785270D01*
X155880961Y-55724361D01*
X155883007Y-55661853D01*
X155872819Y-55600146D01*
X155850789Y-55541613D01*
X155817762Y-55488502D01*
X155775009Y-55442855D01*
X155724172Y-55406426D01*
X155264641Y-55141116D01*
X155264641Y-54200114D01*
X156071017Y-55626779D01*
X152707253Y-61633500D01*
X138958470Y-61633500D01*
X137092528Y-58568024D01*
X135525581Y-55881830D01*
X135656631Y-55661853D01*
X135708993Y-55661853D01*
X135711039Y-55724362D01*
X135725241Y-55785270D01*
X135751053Y-55842237D01*
X136501053Y-57141275D01*
X136537482Y-57192112D01*
X136583129Y-57234865D01*
X136636240Y-57267892D01*
X136694773Y-57289922D01*
X136756480Y-57300110D01*
X136818988Y-57298064D01*
X136879897Y-57283862D01*
X136936864Y-57258050D01*
X137458500Y-56956884D01*
X137458500Y-56966668D01*
X137486073Y-57105287D01*
X137540159Y-57235864D01*
X137618681Y-57353380D01*
X137718620Y-57453319D01*
X137836136Y-57531841D01*
X137966713Y-57585927D01*
X138105332Y-57613500D01*
X138246668Y-57613500D01*
X138385287Y-57585927D01*
X138515864Y-57531841D01*
X138633380Y-57453319D01*
X138733319Y-57353380D01*
X138811841Y-57235864D01*
X138865927Y-57105287D01*
X138893500Y-56966668D01*
X138893500Y-56825332D01*
X138865927Y-56686713D01*
X138811841Y-56556136D01*
X138733319Y-56438620D01*
X138633380Y-56338681D01*
X138515864Y-56260159D01*
X138385287Y-56206073D01*
X138246668Y-56178500D01*
X138176921Y-56178500D01*
X137739093Y-55740673D01*
X137723186Y-55721290D01*
X137645833Y-55657809D01*
X137557581Y-55610637D01*
X137498469Y-55592705D01*
X137291770Y-55234692D01*
X139097103Y-55234692D01*
X139272335Y-55541275D01*
X139308764Y-55592112D01*
X139354411Y-55634866D01*
X139407522Y-55667892D01*
X139466056Y-55689923D01*
X139527762Y-55700110D01*
X139590271Y-55698064D01*
X139651179Y-55683862D01*
X139708146Y-55658050D01*
X139796687Y-55605158D01*
X139825740Y-55496729D01*
X139490428Y-54915951D01*
X139126156Y-55126264D01*
X139097103Y-55234692D01*
X137291770Y-55234692D01*
X137169665Y-55023201D01*
X137133236Y-54972364D01*
X137087589Y-54929611D01*
X137034478Y-54896584D01*
X136975945Y-54874554D01*
X136914238Y-54864366D01*
X136851730Y-54866412D01*
X136790821Y-54880614D01*
X136733854Y-54906426D01*
X135867828Y-55406426D01*
X135816991Y-55442855D01*
X135774238Y-55488502D01*
X135741211Y-55541613D01*
X135719181Y-55600146D01*
X135708993Y-55661853D01*
X135656631Y-55661853D01*
X136290146Y-54598451D01*
X140040354Y-54598451D01*
X140375667Y-55179229D01*
X140484095Y-55208283D01*
X140574172Y-55158050D01*
X140625009Y-55121621D01*
X140667762Y-55075974D01*
X140700789Y-55022863D01*
X140722819Y-54964330D01*
X140733007Y-54902623D01*
X140730961Y-54840115D01*
X140716759Y-54779206D01*
X140690947Y-54722239D01*
X140513054Y-54417192D01*
X140404626Y-54388139D01*
X140040354Y-54598451D01*
X136290146Y-54598451D01*
X136609822Y-54061853D01*
X138480275Y-54061853D01*
X138482321Y-54124361D01*
X138496523Y-54185270D01*
X138522335Y-54242237D01*
X138700228Y-54547284D01*
X138808656Y-54576337D01*
X139172928Y-54366025D01*
X138837615Y-53785247D01*
X138729187Y-53756193D01*
X138639110Y-53806426D01*
X138588273Y-53842855D01*
X138545520Y-53888502D01*
X138512493Y-53941613D01*
X138490463Y-54000146D01*
X138480275Y-54061853D01*
X136609822Y-54061853D01*
X136963757Y-53467747D01*
X139387542Y-53467747D01*
X139722854Y-54048525D01*
X140087126Y-53838212D01*
X140116179Y-53729784D01*
X139940947Y-53423201D01*
X139904518Y-53372364D01*
X139858871Y-53329610D01*
X139805760Y-53296584D01*
X139747226Y-53274553D01*
X139685520Y-53264366D01*
X139623011Y-53266412D01*
X139562103Y-53280614D01*
X139505136Y-53306426D01*
X139416595Y-53359318D01*
X139387542Y-53467747D01*
X136963757Y-53467747D01*
X142434630Y-44284500D01*
X145118080Y-44284500D01*
X144641240Y-44761340D01*
M02*
