G04 #@! TF.GenerationSoftware,KiCad,Pcbnew,5.1.5-52549c5~84~ubuntu16.04.1*
G04 #@! TF.CreationDate,2019-12-06T18:45:02-05:00*
G04 #@! TF.ProjectId,RGBSL,52474253-4c2e-46b6-9963-61645f706362,rev?*
G04 #@! TF.SameCoordinates,Original*
G04 #@! TF.FileFunction,Soldermask,Top*
G04 #@! TF.FilePolarity,Negative*
%FSLAX46Y46*%
G04 Gerber Fmt 4.6, Leading zero omitted, Abs format (unit mm)*
G04 Created by KiCad (PCBNEW 5.1.5-52549c5~84~ubuntu16.04.1) date 2019-12-06 18:45:02*
%MOMM*%
%LPD*%
G04 APERTURE LIST*
%ADD10C,0.100000*%
G04 APERTURE END LIST*
D10*
G36*
X153184321Y-59907575D02*
G01*
X153184321Y-59907576D01*
X152783821Y-60601262D01*
X152383321Y-61294949D01*
X151428961Y-60743949D01*
X151428961Y-60743948D01*
X152034601Y-59694949D01*
X152229961Y-59356575D01*
X153184321Y-59907575D01*
G37*
G36*
X139557399Y-59694949D02*
G01*
X140163039Y-60743948D01*
X140163039Y-60743949D01*
X139208679Y-61294949D01*
X138808179Y-60601262D01*
X138407679Y-59907576D01*
X138407679Y-59907575D01*
X139362039Y-59356575D01*
X139557399Y-59694949D01*
G37*
G36*
X142451441Y-58307575D02*
G01*
X142934321Y-59143948D01*
X142934321Y-59143949D01*
X141979961Y-59694949D01*
X141579461Y-59001262D01*
X141178961Y-58307576D01*
X141178961Y-58307575D01*
X142133321Y-57756575D01*
X142451441Y-58307575D01*
G37*
G36*
X150413039Y-58307575D02*
G01*
X150413039Y-58307576D01*
X150012539Y-59001262D01*
X149612039Y-59694949D01*
X148657679Y-59143949D01*
X148657679Y-59143948D01*
X149140559Y-58307575D01*
X149458679Y-57756575D01*
X150413039Y-58307575D01*
G37*
G36*
X137107399Y-55451425D02*
G01*
X137713039Y-56500424D01*
X137713039Y-56500425D01*
X136758679Y-57051425D01*
X136358179Y-56357738D01*
X135957679Y-55664052D01*
X135957679Y-55664051D01*
X136912039Y-55113051D01*
X137107399Y-55451425D01*
G37*
G36*
X155634321Y-55664051D02*
G01*
X155634321Y-55664052D01*
X155233821Y-56357738D01*
X154833321Y-57051425D01*
X153878961Y-56500425D01*
X153878961Y-56500424D01*
X154484601Y-55451425D01*
X154679961Y-55113051D01*
X155634321Y-55664051D01*
G37*
G36*
X152863039Y-54064051D02*
G01*
X152863039Y-54064052D01*
X152656173Y-54422354D01*
X152062039Y-55451425D01*
X151107679Y-54900425D01*
X151107679Y-54900424D01*
X151563562Y-54110812D01*
X151908679Y-53513051D01*
X152863039Y-54064051D01*
G37*
G36*
X140028438Y-54110812D02*
G01*
X140484321Y-54900424D01*
X140484321Y-54900425D01*
X139529961Y-55451425D01*
X138935827Y-54422354D01*
X138728961Y-54064052D01*
X138728961Y-54064051D01*
X139683321Y-53513051D01*
X140028438Y-54110812D01*
G37*
G36*
X149237000Y-54749000D02*
G01*
X147435000Y-54749000D01*
X147435000Y-52947000D01*
X149237000Y-52947000D01*
X149237000Y-54749000D01*
G37*
G36*
X145909512Y-52951927D02*
G01*
X146058812Y-52981624D01*
X146222784Y-53049544D01*
X146370354Y-53148147D01*
X146495853Y-53273646D01*
X146594456Y-53421216D01*
X146662376Y-53585188D01*
X146697000Y-53759259D01*
X146697000Y-53936741D01*
X146662376Y-54110812D01*
X146594456Y-54274784D01*
X146495853Y-54422354D01*
X146370354Y-54547853D01*
X146222784Y-54646456D01*
X146058812Y-54714376D01*
X145909512Y-54744073D01*
X145884742Y-54749000D01*
X145707258Y-54749000D01*
X145682488Y-54744073D01*
X145533188Y-54714376D01*
X145369216Y-54646456D01*
X145221646Y-54547853D01*
X145096147Y-54422354D01*
X144997544Y-54274784D01*
X144929624Y-54110812D01*
X144895000Y-53936741D01*
X144895000Y-53759259D01*
X144929624Y-53585188D01*
X144997544Y-53421216D01*
X145096147Y-53273646D01*
X145221646Y-53148147D01*
X145369216Y-53049544D01*
X145533188Y-52981624D01*
X145682488Y-52951927D01*
X145707258Y-52947000D01*
X145884742Y-52947000D01*
X145909512Y-52951927D01*
G37*
G36*
X143369512Y-52951927D02*
G01*
X143518812Y-52981624D01*
X143682784Y-53049544D01*
X143830354Y-53148147D01*
X143955853Y-53273646D01*
X144054456Y-53421216D01*
X144122376Y-53585188D01*
X144157000Y-53759259D01*
X144157000Y-53936741D01*
X144122376Y-54110812D01*
X144054456Y-54274784D01*
X143955853Y-54422354D01*
X143830354Y-54547853D01*
X143682784Y-54646456D01*
X143518812Y-54714376D01*
X143369512Y-54744073D01*
X143344742Y-54749000D01*
X143167258Y-54749000D01*
X143142488Y-54744073D01*
X142993188Y-54714376D01*
X142829216Y-54646456D01*
X142681646Y-54547853D01*
X142556147Y-54422354D01*
X142457544Y-54274784D01*
X142389624Y-54110812D01*
X142355000Y-53936741D01*
X142355000Y-53759259D01*
X142389624Y-53585188D01*
X142457544Y-53421216D01*
X142556147Y-53273646D01*
X142681646Y-53148147D01*
X142829216Y-53049544D01*
X142993188Y-52981624D01*
X143142488Y-52951927D01*
X143167258Y-52947000D01*
X143344742Y-52947000D01*
X143369512Y-52951927D01*
G37*
G36*
X144401000Y-49141000D02*
G01*
X142799000Y-49141000D01*
X142799000Y-48039000D01*
X144401000Y-48039000D01*
X144401000Y-49141000D01*
G37*
G36*
X149301000Y-49141000D02*
G01*
X147699000Y-49141000D01*
X147699000Y-48039000D01*
X149301000Y-48039000D01*
X149301000Y-49141000D01*
G37*
G36*
X144401000Y-45941000D02*
G01*
X142799000Y-45941000D01*
X142799000Y-44839000D01*
X144401000Y-44839000D01*
X144401000Y-45941000D01*
G37*
G36*
X149301000Y-45941000D02*
G01*
X147699000Y-45941000D01*
X147699000Y-44839000D01*
X149301000Y-44839000D01*
X149301000Y-45941000D01*
G37*
M02*
